<svg width="68" height="68" viewBox="0 0 68 68" fill="none" xmlns="http://www.w3.org/2000/svg">
<g clip-path="url(#clip0_6861_425)">
<path d="M51.2656 30.5469C52.7326 30.5469 53.9219 29.3576 53.9219 27.8906C53.9219 26.4236 52.7326 25.2344 51.2656 25.2344C49.7986 25.2344 48.6094 26.4236 48.6094 27.8906C48.6094 29.3576 49.7986 30.5469 51.2656 30.5469Z" fill="black"/>
<path d="M39.7109 30.5469C41.1779 30.5469 42.3672 29.3576 42.3672 27.8906C42.3672 26.4236 41.1779 25.2344 39.7109 25.2344C38.2439 25.2344 37.0547 26.4236 37.0547 27.8906C37.0547 29.3576 38.2439 30.5469 39.7109 30.5469Z" fill="black"/>
<path d="M16.6016 53.6562C18.0686 53.6562 19.2578 52.467 19.2578 51C19.2578 49.533 18.0686 48.3438 16.6016 48.3438C15.1346 48.3438 13.9453 49.533 13.9453 51C13.9453 52.467 15.1346 53.6562 16.6016 53.6562Z" fill="black"/>
<path d="M16.6016 30.5469C18.0686 30.5469 19.2578 29.3576 19.2578 27.8906C19.2578 26.4236 18.0686 25.2344 16.6016 25.2344C15.1346 25.2344 13.9453 26.4236 13.9453 27.8906C13.9453 29.3576 15.1346 30.5469 16.6016 30.5469Z" fill="black"/>
<path d="M16.6016 42.1016C18.0686 42.1016 19.2578 40.9123 19.2578 39.4453C19.2578 37.9783 18.0686 36.7891 16.6016 36.7891C15.1346 36.7891 13.9453 37.9783 13.9453 39.4453C13.9453 40.9123 15.1346 42.1016 16.6016 42.1016Z" fill="black"/>
<path d="M28.1562 42.1016C29.6233 42.1016 30.8125 40.9123 30.8125 39.4453C30.8125 37.9783 29.6233 36.7891 28.1562 36.7891C26.6892 36.7891 25.5 37.9783 25.5 39.4453C25.5 40.9123 26.6892 42.1016 28.1562 42.1016Z" fill="black"/>
<path d="M28.1562 30.5469C29.6233 30.5469 30.8125 29.3576 30.8125 27.8906C30.8125 26.4236 29.6233 25.2344 28.1562 25.2344C26.6892 25.2344 25.5 26.4236 25.5 27.8906C25.5 29.3576 26.6892 30.5469 28.1562 30.5469Z" fill="black"/>
<path d="M28.1562 53.6562C29.6233 53.6562 30.8125 52.467 30.8125 51C30.8125 49.533 29.6233 48.3438 28.1562 48.3438C26.6892 48.3438 25.5 49.533 25.5 51C25.5 52.467 26.6892 53.6562 28.1562 53.6562Z" fill="black"/>
<rect x="39.1479" y="38.5185" width="13" height="13" rx="4" stroke="black" stroke-width="4"/>
<rect x="2" y="7.03704" width="64" height="58.963" rx="14" stroke="black" stroke-width="4"/>
<line x1="15.8521" y1="2" x2="15.852" y2="11.8519" stroke="black" stroke-width="4" stroke-linecap="round"/>
<line x1="34.7407" y1="2" x2="34.7407" y2="11.8519" stroke="black" stroke-width="4" stroke-linecap="round"/>
<line x1="52.3706" y1="2" x2="52.3706" y2="11.8519" stroke="black" stroke-width="4" stroke-linecap="round"/>
</g>
<defs>
<clipPath id="clip0_6861_425">
<rect width="68" height="68" fill="white"/>
</clipPath>
</defs>
</svg>
