<svg width="73" height="73" viewBox="0 0 73 73" fill="none" xmlns="http://www.w3.org/2000/svg">
<path d="M20.0889 33.4854L24.773 38.0926C25.1399 38.4533 25.6182 38.6443 26.1096 38.6443C26.3304 38.6443 26.5538 38.6057 26.7711 38.5267C27.4719 38.2716 27.9514 37.6521 28.0225 36.9099L28.6493 30.37C28.6532 30.3285 28.675 30.2905 28.7088 30.2659C33.0129 27.1207 35.5826 22.0648 35.5826 16.7412C35.5826 12.2255 33.8118 7.99219 30.5961 4.82111C27.3811 1.6506 23.1293 -0.0609085 18.6035 0.00196847C14.2412 0.0627067 10.1267 1.80829 7.01764 4.91735C3.90858 8.02641 2.163 12.1411 2.10226 16.5032C2.03938 21.0218 3.75089 25.2808 6.9214 28.4958C10.0925 31.7113 14.3259 33.4822 18.8415 33.4822C19.2199 33.4822 19.6027 33.4693 19.9791 33.4441C20.0202 33.4415 20.0593 33.4562 20.0889 33.4854ZM18.8416 31.3432C14.9028 31.3432 11.2103 29.7985 8.44413 26.9937C5.67869 24.1895 4.1859 20.4743 4.24079 16.5326C4.29354 12.7303 5.81699 9.14222 8.52982 6.42925C11.2428 3.71627 14.8309 2.19311 18.6332 2.14007C22.5721 2.08703 26.2901 3.57797 29.0943 6.34356C31.8991 9.10957 33.4438 12.8021 33.4438 16.7409C33.4438 21.3845 31.2019 25.7949 27.4467 28.539C26.9201 28.9239 26.5824 29.5168 26.5202 30.1658L25.938 36.2389L21.5883 31.9607C21.1598 31.5394 20.5835 31.3048 19.9877 31.3048C19.9372 31.3048 19.8865 31.3066 19.8357 31.31C19.5071 31.3319 19.1724 31.3432 18.8416 31.3432Z" fill="black"/>
<path d="M70.7393 55.0426L65.4739 25.5628C65.0611 23.2553 63.0606 21.5806 60.7171 21.5806H57.3782C56.8204 20.6189 56.058 19.791 55.15 19.1564L56.4268 15.6502C56.7692 14.7091 56.2818 13.6644 55.34 13.3215L53.5157 12.6574L55.5245 7.13801C55.8673 6.19671 55.3829 5.15717 54.4412 4.81441L50.5617 3.40246C49.6201 3.05985 48.5808 3.54433 48.2382 4.48591L46.2293 10.0051L44.4043 9.34084C43.4641 8.99866 42.4207 9.48499 42.0768 10.4261L34.0296 32.5346C33.6874 33.476 34.1743 34.5206 35.1152 34.8632L35.36 34.9523L34.4242 37.5231C34.2524 37.9955 34.2747 38.5063 34.487 38.9619C34.6994 39.4174 35.0765 39.763 35.5488 39.9348L42.4589 42.4499C42.6691 42.5263 42.8867 42.5644 43.1037 42.5644C43.3746 42.5644 43.6448 42.5051 43.8977 42.3872C44.3532 42.1747 44.6987 41.7976 44.8707 41.3254L45.8068 38.7533L46.0506 38.842C46.2537 38.9161 46.464 38.953 46.6738 38.953C47.3986 38.953 48.1059 38.5088 48.3791 37.7572L50.1426 32.9146C53.2296 33.1895 56.0696 31.5796 57.4848 28.9714C57.7412 29.1132 57.9153 29.386 57.9153 29.6992V37.9302C57.9153 38.5207 58.3939 38.9995 58.9846 38.9995C59.5753 38.9995 60.0539 38.5207 60.0539 37.9302V29.699C60.0539 28.4668 59.2993 27.4079 58.2281 26.9589C58.338 26.4459 58.3973 25.9146 58.3973 25.3692C58.3973 24.8024 58.3327 24.2508 58.2143 23.7193H60.7169C62.0232 23.7193 63.1385 24.6529 63.3686 25.9391L68.634 55.4185C69.053 57.7657 68.4157 60.1604 66.8849 61.9888C65.354 63.8172 63.1085 64.8661 60.7242 64.8661C59.6737 64.8661 34.2062 64.8658 33.1566 64.8658V56.2121C33.5963 56.2121 51.1287 56.2117 55.1564 56.2117C57.857 56.2117 60.0541 54.0147 60.0541 51.3141V42.9206C60.0541 42.33 59.5755 41.8512 58.9847 41.8512C58.3941 41.8512 57.9154 42.33 57.9154 42.9206V51.3141C57.9154 52.8354 56.6777 54.073 55.1564 54.073H53.174V50.2669C53.174 49.2841 52.3745 48.4847 51.3918 48.4847H28.2947C27.3119 48.4847 26.5124 49.2841 26.5124 50.2669V54.43C26.5124 55.4128 27.3119 56.2123 28.2947 56.2123H31.0181V64.8659H21.4399C20.4572 64.8659 19.6577 65.6653 19.6577 66.6481V71.2178C19.6577 72.2006 20.4572 73 21.4399 73H29.592C30.1827 73 30.6613 72.5212 30.6613 71.9307C30.6613 71.3401 30.1827 70.8613 29.592 70.8613H21.7964V67.0043C25.3355 67.0043 54.7192 67.0046 57.89 67.0046V70.8613H34.5822C33.9915 70.8613 33.5129 71.3401 33.5129 71.9307C33.5129 72.5212 33.9915 73 34.5822 73H58.2466C59.2294 73 60.0289 72.2006 60.0289 71.2178V67.0046H60.7243C63.7433 67.0046 66.5864 65.6768 68.5248 63.3616C70.4629 61.0467 71.27 58.0145 70.7393 55.0426ZM50.1364 5.5236L53.4034 6.71256L51.5058 11.9258L48.2389 10.7365L50.1364 5.5236ZM42.949 40.3522L36.5219 38.0129L37.3698 35.6833L43.7972 38.0219L42.949 40.3522ZM46.4801 36.7221C44.6082 36.041 37.4224 33.4266 36.1493 32.9635L43.9761 11.4608C44.9332 11.8093 54.3068 15.2213 54.3068 15.2213L53.227 18.1864C52.4704 17.9322 51.6617 17.7923 50.8203 17.7923C46.6423 17.7923 43.2433 21.1914 43.2433 25.3693C43.2433 28.5686 45.2375 31.3093 48.0473 32.4185L46.4801 36.7221ZM50.8204 30.8077C47.8217 30.8077 45.3821 28.368 45.3821 25.3693C45.3821 22.3706 47.8216 19.931 50.8204 19.931C53.8193 19.931 56.2589 22.3706 56.2589 25.3693C56.2589 28.368 53.8191 30.8077 50.8204 30.8077ZM28.6511 50.6231H51.0353V54.0727C50.9125 54.0727 32.1702 54.0732 28.6511 54.0732V50.6231Z" fill="black"/>
<path d="M50.8206 22.1307C49.0349 22.1307 47.582 23.5834 47.582 25.3692C47.582 27.155 49.0348 28.6077 50.8206 28.6077C52.6063 28.6077 54.0592 27.155 54.0592 25.3692C54.0592 23.5834 52.6063 22.1307 50.8206 22.1307ZM50.8206 26.4692C50.214 26.4692 49.7207 25.9759 49.7207 25.3693C49.7207 24.7628 50.214 24.2695 50.8206 24.2695C51.4271 24.2695 51.9206 24.7628 51.9206 25.3693C51.9206 25.9759 51.4271 26.4692 50.8206 26.4692Z" fill="black"/>
<path d="M25.4889 15.7031C27.3303 15.7031 28.8283 14.205 28.8283 12.3636C28.8283 10.5222 27.3303 9.02415 25.4889 9.02415C23.6475 9.02415 22.1494 10.5222 22.1494 12.3636C22.1494 14.205 23.6475 15.7031 25.4889 15.7031ZM25.4889 11.1628C26.151 11.1628 26.6897 11.7015 26.6897 12.3636C26.6897 13.0257 26.151 13.5644 25.4889 13.5644C24.8267 13.5644 24.2881 13.0257 24.2881 12.3636C24.2881 11.7015 24.8267 11.1628 25.4889 11.1628Z" fill="black"/>
<path d="M11.1798 13.252C9.3384 13.252 7.84033 14.7501 7.84033 16.5915C7.84033 18.4329 9.3384 19.931 11.1798 19.931C13.0212 19.931 14.5194 18.4329 14.5194 16.5915C14.5194 14.7501 13.0212 13.252 11.1798 13.252ZM11.1798 17.7923C10.5177 17.7923 9.979 17.2536 9.979 16.5915C9.979 15.9294 10.5177 15.3907 11.1798 15.3907C11.8421 15.3907 12.3807 15.9294 12.3807 16.5915C12.3807 17.2536 11.8421 17.7923 11.1798 17.7923Z" fill="black"/>
<path d="M27.6405 20.2653L26.0116 21.8942C25.5938 22.3118 25.5938 22.9887 26.0114 23.4063C26.2203 23.6152 26.4939 23.7196 26.7677 23.7196C27.0413 23.7196 27.315 23.6152 27.5238 23.4063L29.1527 21.7775C29.5705 21.3599 29.5705 20.683 29.1529 20.2653C28.7352 19.8477 28.058 19.8477 27.6405 20.2653Z" fill="black"/>
<path d="M17.0269 7.2588C16.6095 6.84105 15.9324 6.84119 15.5148 7.2588L13.8859 8.88762C13.4683 9.30523 13.4683 9.98233 13.8861 10.3998C14.0948 10.6087 14.3686 10.713 14.6422 10.713C14.9158 10.713 15.1895 10.6087 15.3984 10.3998L17.0272 8.77099C17.4447 8.35338 17.4447 7.67641 17.0269 7.2588Z" fill="black"/>
<path d="M20.4123 16.1782L18.7835 14.5494C18.3659 14.1318 17.6888 14.1318 17.2713 14.5494C16.8536 14.967 16.8536 15.644 17.2712 16.0616L18.9 17.6904C19.1089 17.8993 19.3825 18.0036 19.6562 18.0036C19.9299 18.0036 20.2036 17.8993 20.4123 17.6904C20.83 17.2729 20.83 16.5958 20.4123 16.1782Z" fill="black"/>
<path d="M17.4391 23.0781L15.8103 24.7069C15.3926 25.1245 15.3926 25.8016 15.8104 26.2191C16.0191 26.428 16.2929 26.5323 16.5665 26.5323C16.8401 26.5323 17.1139 26.428 17.3227 26.2191L18.9515 24.5903C19.3692 24.1727 19.3692 23.4956 18.9514 23.0781C18.5338 22.6604 17.8567 22.6605 17.4391 23.0781Z" fill="black"/>
</svg>
