<svg width="53" height="58" viewBox="0 0 53 58" fill="none" xmlns="http://www.w3.org/2000/svg">
<path d="M26.5 6.44444V0L42.1922 15.3333C42.449 15.5841 42.4511 15.9958 42.1969 16.2492L39.8781 18.5612C39.628 18.8106 39.2232 18.8131 38.9699 18.5669L26.5 6.44444Z" fill="#313C48"/>
<path d="M26.4999 6.44444V0L10.8077 15.3333C10.5509 15.5841 10.5489 15.9958 10.8031 16.2492L13.1218 18.5612C13.372 18.8106 13.7768 18.8131 14.0301 18.5669L26.4999 6.44444Z" fill="#535D69"/>
<path d="M26.8231 31.2556L19.2197 23.9777C18.9585 23.7277 18.9542 23.3125 19.2103 23.0571L21.2098 21.0635C21.4565 20.8175 21.8544 20.8111 22.109 21.049L26.8231 25.4556V31.2556Z" fill="#DDD0A4"/>
<path d="M26.8232 31.2556L34.4266 23.9777C34.6879 23.7277 34.6921 23.3125 34.436 23.0571L32.4365 21.0635C32.1898 20.8175 31.7919 20.8111 31.5374 21.049L26.8232 25.4556V31.2556Z" fill="#A89060"/>
<path fill-rule="evenodd" clip-rule="evenodd" d="M26.2782 12.2444L23.0789 15.4342C22.8265 15.6859 22.8265 16.0939 23.0789 16.3456L26.2782 19.5354V12.2444Z" fill="#DDD0A4"/>
<path fill-rule="evenodd" clip-rule="evenodd" d="M26.2778 12.2444L29.4771 15.4342C29.7295 15.6859 29.7295 16.0939 29.4771 16.3456L26.2778 19.5354V12.2444Z" fill="#A89060"/>
<path d="M26.2162 34.8C20.7227 34.8 15.8471 37.4552 12.7944 41.5564C16.6386 38.7401 21.0921 37.078 26.2162 37.078C30.7998 37.078 35.3577 38.408 38.96 40.7045C35.8892 37.0912 31.3193 34.8 26.2162 34.8Z" fill="#313C48"/>
<path fill-rule="evenodd" clip-rule="evenodd" d="M12.7944 41.5564C15.8471 37.4552 20.7227 34.8 26.2162 34.8V37.078C21.0921 37.078 16.6386 38.7401 12.7944 41.5564Z" fill="#535D69"/>
<path d="M1.95018 49.373C1.92746 49.7078 1.88959 49.9784 1.83657 50.1849C1.78355 50.3888 1.6977 50.5612 1.57904 50.7022V50.7324H3.96495V46.9261H2.10546L1.95018 49.373ZM0.992035 51.5556V52.6317H0.102051V50.7324H0.492128C0.67644 50.6166 0.808985 50.4479 0.889778 50.2264C0.97057 50.0023 1.02233 49.6978 1.04505 49.3126L1.24199 46.1067H4.93825V50.7324H5.61994V52.6317H4.73375V51.5556H0.992035ZM9.8578 50.7324V51.5556H6.32056V46.1067H9.8578V46.93H7.29764V48.4026H9.71767V49.1767H7.29764V50.7324H9.8578ZM15.1522 51.5556H14.1751V46.9261H12.4368L12.2891 49.4448C12.2462 50.1723 12.1036 50.7136 11.8612 51.0684C11.6188 51.4209 11.2489 51.5971 10.7516 51.5971C10.6101 51.5971 10.4915 51.582 10.3956 51.5518V50.6984C10.4713 50.7161 10.5496 50.7248 10.6304 50.7248C10.8803 50.7248 11.0621 50.6191 11.1757 50.4077C11.2893 50.1937 11.3587 49.8539 11.384 49.3881L11.562 46.1067H15.1522V51.5556ZM18.5985 46.0161C19.3939 46.0161 20.0238 46.2691 20.4883 46.7751C20.9554 47.2811 21.1889 47.9671 21.1889 48.8331C21.1889 49.699 20.9554 50.385 20.4883 50.891C20.0238 51.3945 19.3939 51.6462 18.5985 51.6462C17.8007 51.6462 17.1682 51.3945 16.7011 50.891C16.2366 50.385 16.0043 49.699 16.0043 48.8331C16.0043 47.9671 16.2366 47.2811 16.7011 46.7751C17.1682 46.2691 17.8007 46.0161 18.5985 46.0161ZM19.7612 47.3868C19.4734 47.0269 19.0858 46.8469 18.5985 46.8469C18.1113 46.8469 17.7237 47.0256 17.4359 47.3831C17.148 47.7405 17.0041 48.2239 17.0041 48.8331C17.0041 49.4397 17.148 49.9218 17.4359 50.2793C17.7237 50.6367 18.1113 50.8155 18.5985 50.8155C19.0858 50.8155 19.4734 50.6367 19.7612 50.2793C20.049 49.9218 20.1929 49.4397 20.1929 48.8331C20.1929 48.2264 20.049 47.7443 19.7612 47.3868ZM28.3202 48.7009L30.6909 51.5556H29.4677L27.4188 49.0709H27.3885V51.5556H26.4341V49.0709H26.4039L24.3399 51.5556H23.1469L25.4987 48.7122L23.3098 46.1067H24.4459L26.4039 48.4894H26.4341V46.1067H27.3885V48.4894H27.4188L29.3805 46.1067H30.4977L28.3202 48.7009ZM34.9363 51.5556V47.6361H34.8871L32.2323 51.5556H31.2855V46.1067H32.2588V50.0376H32.308L34.959 46.1067H35.9058V51.5556H34.9363ZM38.0418 49.1653V48.38H38.7689C39.0669 48.38 39.308 48.3031 39.4923 48.1496C39.6766 47.9961 39.7687 47.7959 39.7687 47.5492C39.7687 47.305 39.6816 47.1125 39.5074 46.9715C39.3358 46.828 39.0996 46.7562 38.7992 46.7562C38.4962 46.7562 38.2513 46.8305 38.0645 46.979C37.8777 47.1275 37.7742 47.3302 37.754 47.587H36.8413C36.8665 47.0911 37.0571 46.6983 37.4131 46.4089C37.7691 46.1168 38.24 45.9708 38.8257 45.9708C39.3837 45.9708 39.8382 46.108 40.1891 46.3824C40.5401 46.6543 40.7155 47.0067 40.7155 47.4397C40.7155 47.7443 40.6209 48.0124 40.4315 48.244C40.2421 48.4756 39.996 48.6254 39.693 48.6933V48.7236C40.0591 48.7664 40.3494 48.9086 40.5641 49.1503C40.7786 49.3919 40.8859 49.6965 40.8859 50.064C40.8859 50.5298 40.6878 50.9175 40.2914 51.227C39.8975 51.5367 39.4027 51.6915 38.8068 51.6915C38.1983 51.6915 37.7022 51.5417 37.3185 51.2422C36.9372 50.9426 36.734 50.5461 36.7087 50.0527H37.6479C37.6681 50.307 37.783 50.5096 37.9925 50.6606C38.2047 50.8092 38.4773 50.8834 38.8106 50.8834C39.1313 50.8834 39.39 50.8029 39.5869 50.6418C39.7839 50.4806 39.8824 50.2692 39.8824 50.0074C39.8824 49.7431 39.7852 49.5367 39.5907 49.3881C39.3988 49.2396 39.1313 49.1653 38.7878 49.1653H38.0418ZM46.294 51.5556H45.3207V49.1918H42.6621V51.5556H41.685V46.1067H42.6621V48.3723H45.3207V46.1067H46.294V51.5556ZM50.9863 51.5556V47.6361H50.9371L48.2823 51.5556H47.3355V46.1067H48.3088V50.0376H48.358L51.009 46.1067H51.9558V51.5556H50.9863Z" fill="#313C48"/>
<path d="M9.72154 55.3687H9.27466C9.24816 55.2743 9.19826 55.1976 9.1251 55.1384C9.05186 55.0792 8.95905 55.0497 8.84672 55.0497C8.69773 55.0497 8.57907 55.1094 8.49071 55.229C8.40365 55.3473 8.36009 55.5078 8.36009 55.7105C8.36009 55.9156 8.40365 56.0773 8.49071 56.1957C8.57907 56.3127 8.69838 56.3713 8.84859 56.3713C8.96099 56.3713 9.05374 56.3436 9.12697 56.2882C9.20143 56.2328 9.25197 56.1547 9.27847 56.0541H9.72535C9.69633 56.2655 9.60287 56.4348 9.4451 56.562C9.28855 56.6878 9.08845 56.7507 8.84484 56.7507C8.55069 56.7507 8.31717 56.6576 8.14421 56.4713C7.97125 56.285 7.88477 56.0314 7.88477 55.7105C7.88477 55.3933 7.97125 55.1403 8.14421 54.9514C8.31717 54.7627 8.5494 54.6683 8.84103 54.6683C9.08593 54.6683 9.28668 54.7343 9.44322 54.8665C9.5997 54.9987 9.69252 55.166 9.72154 55.3687ZM11.5678 54.7098V55.0723H10.9505V56.7111H10.4828V55.0723H9.86548V54.7098H11.5678ZM12.9633 54.6758C13.2184 54.6758 13.4209 54.7684 13.5712 54.9534C13.7214 55.1384 13.7965 55.3908 13.7965 55.7105C13.7965 56.0289 13.7221 56.2806 13.5731 56.4656C13.4241 56.6506 13.2234 56.7432 12.971 56.7432C12.827 56.7432 12.7001 56.7111 12.5903 56.6469C12.4805 56.5814 12.3978 56.4921 12.3423 56.3788H12.3328V57.37H11.8613V54.7098H12.3214V55.0553H12.3309C12.389 54.937 12.4729 54.8445 12.5828 54.7778C12.6926 54.7098 12.8195 54.6758 12.9633 54.6758ZM12.8195 56.358C12.9722 56.358 13.0927 56.3001 13.1811 56.1843C13.2695 56.0673 13.3136 55.9093 13.3136 55.7105C13.3136 55.5128 13.2689 55.3555 13.1792 55.2384C13.0909 55.1214 12.971 55.0629 12.8195 55.0629C12.673 55.0629 12.555 55.122 12.4653 55.2403C12.3757 55.3587 12.3302 55.5153 12.329 55.7105C12.3302 55.9068 12.3757 56.0641 12.4653 56.1825C12.555 56.2995 12.673 56.358 12.8195 56.358ZM14.874 56.3882C15.0091 56.3882 15.1227 56.3486 15.2148 56.2693C15.3083 56.1888 15.3549 56.0887 15.3549 55.9691V55.8162L14.891 55.8445C14.7774 55.852 14.6891 55.8803 14.6259 55.9294C14.5641 55.9773 14.5332 56.0409 14.5332 56.1201C14.5332 56.202 14.5641 56.2674 14.6259 56.3165C14.6891 56.3643 14.7717 56.3882 14.874 56.3882ZM14.732 56.7432C14.5363 56.7432 14.3753 56.6872 14.2491 56.5752C14.1241 56.4631 14.0617 56.3177 14.0617 56.139C14.0617 55.9615 14.1273 55.8212 14.2585 55.718C14.3911 55.6148 14.5798 55.5556 14.8247 55.5405L15.3549 55.5103V55.3668C15.3549 55.2624 15.3215 55.1812 15.2546 55.1233C15.1889 55.0654 15.0974 55.0364 14.98 55.0364C14.8702 55.0364 14.7806 55.061 14.7111 55.11C14.6417 55.1591 14.5994 55.2258 14.5843 55.3102H14.1468C14.1569 55.1201 14.2384 54.9659 14.3911 54.8476C14.5451 54.7281 14.7477 54.6683 14.999 54.6683C15.2476 54.6683 15.4464 54.7287 15.5954 54.8495C15.7456 54.9703 15.8207 55.1314 15.8207 55.3328V56.7111H15.3663V56.392H15.3569C15.3 56.499 15.2142 56.5846 15.0993 56.6488C14.9844 56.7117 14.862 56.7432 14.732 56.7432ZM17.0194 55.9936H17.0099L16.5934 56.7111H16.0916L16.7391 55.7123L16.0972 54.7098H16.6274L17.0326 55.4122H17.0421L17.4417 54.7098H17.9586L17.3129 55.6991L17.951 56.7111H17.436L17.0194 55.9936ZM19.7821 56.4732C19.6067 56.6582 19.3706 56.7507 19.0739 56.7507C18.7773 56.7507 18.5412 56.6582 18.3657 56.4732C18.1903 56.2869 18.1025 56.0327 18.1025 55.7105C18.1025 55.3895 18.1909 55.1359 18.3676 54.9496C18.5444 54.762 18.7798 54.6683 19.0739 54.6683C19.3693 54.6683 19.6047 54.762 19.7802 54.9496C19.957 55.1359 20.0454 55.3895 20.0454 55.7105C20.0454 56.0327 19.9576 56.2869 19.7821 56.4732ZM18.7142 56.2032C18.8025 56.3203 18.9225 56.3788 19.0739 56.3788C19.2254 56.3788 19.3454 56.3203 19.4337 56.2032C19.5221 56.0862 19.5663 55.9219 19.5663 55.7105C19.5663 55.5003 19.5221 55.3366 19.4337 55.2195C19.3454 55.1013 19.2254 55.0421 19.0739 55.0421C18.9237 55.0421 18.8038 55.1013 18.7142 55.2195C18.6258 55.3366 18.5816 55.5003 18.5816 55.7105C18.5816 55.9219 18.6258 56.0862 18.7142 56.2032ZM21.2269 55.0288H20.8463V55.5273H21.1909C21.4131 55.5273 21.5242 55.443 21.5242 55.2743C21.5242 55.1963 21.4983 55.1359 21.4466 55.0931C21.3961 55.0503 21.3229 55.0288 21.2269 55.0288ZM21.2194 55.8256H20.8463V56.392H21.2572C21.3696 56.392 21.4554 56.3681 21.5147 56.3203C21.5741 56.2712 21.6038 56.2007 21.6038 56.1088C21.6038 55.92 21.4756 55.8256 21.2194 55.8256ZM20.3843 56.7111V54.7098H21.3367C21.5387 54.7098 21.6971 54.7551 21.8121 54.8458C21.9269 54.9351 21.9844 55.0591 21.9844 55.2177C21.9844 55.3221 21.9503 55.4159 21.8821 55.499C21.8152 55.5808 21.7319 55.6305 21.6322 55.6481V55.6632C21.7647 55.6809 21.8714 55.7324 21.9522 55.8181C22.033 55.9037 22.0734 56.0088 22.0734 56.1333C22.0734 56.3108 22.0084 56.4518 21.8783 56.5563C21.7496 56.6595 21.5741 56.7111 21.3519 56.7111H20.3843ZM23.1565 56.3882C23.2915 56.3882 23.4052 56.3486 23.4973 56.2693C23.5907 56.1888 23.6375 56.0887 23.6375 55.9691V55.8162L23.1735 55.8445C23.0599 55.852 22.9715 55.8803 22.9085 55.9294C22.8466 55.9773 22.8156 56.0409 22.8156 56.1201C22.8156 56.202 22.8466 56.2674 22.9085 56.3165C22.9715 56.3643 23.0542 56.3882 23.1565 56.3882ZM23.0145 56.7432C22.8188 56.7432 22.6579 56.6872 22.5316 56.5752C22.4066 56.4631 22.3441 56.3177 22.3441 56.139C22.3441 55.9615 22.4098 55.8212 22.5411 55.718C22.6736 55.6148 22.8624 55.5556 23.1073 55.5405L23.6375 55.5103V55.3668C23.6375 55.2624 23.604 55.1812 23.5371 55.1233C23.4715 55.0654 23.38 55.0364 23.2625 55.0364C23.1527 55.0364 23.0631 55.061 22.9936 55.11C22.9242 55.1591 22.8819 55.2258 22.8668 55.3102H22.4293C22.4395 55.1201 22.5209 54.9659 22.6736 54.8476C22.8277 54.7281 23.0302 54.6683 23.2815 54.6683C23.5302 54.6683 23.729 54.7287 23.878 54.8495C24.0282 54.9703 24.1033 55.1314 24.1033 55.3328V56.7111H23.6488V56.392H23.6393C23.5825 56.499 23.4967 56.5846 23.3818 56.6488C23.2669 56.7117 23.1445 56.7432 23.0145 56.7432ZM25.3095 55.6973H25.6579V55.0685H25.3095C25.2009 55.0685 25.1144 55.0975 25.05 55.1553C24.987 55.2133 24.9554 55.292 24.9554 55.3913C24.9554 55.4807 24.9876 55.5544 25.052 55.6123C25.1164 55.6689 25.2022 55.6973 25.3095 55.6973ZM25.6579 56.7111V56.0409H25.389L24.9213 56.7111H24.3949L24.9345 55.9672C24.7944 55.9244 24.6846 55.8533 24.6051 55.7538C24.5268 55.6532 24.4877 55.533 24.4877 55.3933C24.4877 55.1831 24.5584 55.0169 24.6997 54.8948C24.8424 54.7715 25.0336 54.7098 25.2735 54.7098H26.1199V56.7111H25.6579ZM28.237 55.6443L29.127 56.7111H28.5494L27.8033 55.8162H27.7882V56.7111H27.3186V54.7098H27.7882V55.5443H27.8033L28.538 54.7098H29.0872L28.237 55.6443ZM30.9088 56.4732C30.7333 56.6582 30.4973 56.7507 30.2006 56.7507C29.9039 56.7507 29.6679 56.6582 29.4924 56.4732C29.3169 56.2869 29.2292 56.0327 29.2292 55.7105C29.2292 55.3895 29.3176 55.1359 29.4943 54.9496C29.671 54.762 29.9065 54.6683 30.2006 54.6683C30.496 54.6683 30.7314 54.762 30.9069 54.9496C31.0836 55.1359 31.172 55.3895 31.172 55.7105C31.172 56.0327 31.0843 56.2869 30.9088 56.4732ZM29.8408 56.2032C29.9292 56.3203 30.0491 56.3788 30.2006 56.3788C30.3521 56.3788 30.472 56.3203 30.5604 56.2032C30.6487 56.0862 30.6929 55.9219 30.6929 55.7105C30.6929 55.5003 30.6487 55.3366 30.5604 55.2195C30.472 55.1013 30.3521 55.0421 30.2006 55.0421C30.0504 55.0421 29.9304 55.1013 29.8408 55.2195C29.7524 55.3366 29.7083 55.5003 29.7083 55.7105C29.7083 55.9219 29.7524 56.0862 29.8408 56.2032ZM31.9598 56.7111H31.5109V54.7098H32.1112L32.7039 56.1069H32.7191L33.3118 54.7098H33.9025V56.7111H33.4538V55.3423H33.4386L32.8725 56.6185H32.5392L31.973 55.3423H31.9598V56.7111ZM35.6238 56.7111V55.0723H34.7944V56.7111H34.3248V54.7098H36.0953V56.7111H35.6238ZM37.2523 56.3882C37.3873 56.3882 37.501 56.3486 37.5931 56.2693C37.6865 56.1888 37.7333 56.0887 37.7333 55.9691V55.8162L37.2693 55.8445C37.1557 55.852 37.0673 55.8803 37.0043 55.9294C36.9423 55.9773 36.9114 56.0409 36.9114 56.1201C36.9114 56.202 36.9423 56.2674 37.0043 56.3165C37.0673 56.3643 37.15 56.3882 37.2523 56.3882ZM37.1103 56.7432C36.9146 56.7432 36.7537 56.6872 36.6274 56.5752C36.5024 56.4631 36.4399 56.3177 36.4399 56.139C36.4399 55.9615 36.5056 55.8212 36.6369 55.718C36.7694 55.6148 36.9582 55.5556 37.2031 55.5405L37.7333 55.5103V55.3668C37.7333 55.2624 37.6998 55.1812 37.6329 55.1233C37.5672 55.0654 37.4757 55.0364 37.3583 55.0364C37.2485 55.0364 37.1589 55.061 37.0894 55.11C37.02 55.1591 36.9777 55.2258 36.9626 55.3102H36.5251C36.5353 55.1201 36.6166 54.9659 36.7694 54.8476C36.9235 54.7281 37.126 54.6683 37.3773 54.6683C37.626 54.6683 37.8248 54.7287 37.9738 54.8495C38.124 54.9703 38.1991 55.1314 38.1991 55.3328V56.7111H37.7446V56.392H37.7351C37.6783 56.499 37.5925 56.5846 37.4776 56.6488C37.3627 56.7117 37.2403 56.7432 37.1103 56.7432ZM39.9298 56.7111V55.8615H39.0815V56.7111H38.6119V54.7098H39.0815V55.499H39.9298V54.7098H40.3994V56.7111H39.9298ZM41.2856 56.7111H40.8236V54.7098H41.2856V56.0465H41.3007L42.1737 54.7098H42.6357V56.7111H42.1737V55.3649H42.1586L41.2856 56.7111ZM43.8514 55.6973H44.1998V55.0685H43.8514C43.7428 55.0685 43.6563 55.0975 43.592 55.1553C43.5289 55.2133 43.4973 55.292 43.4973 55.3913C43.4973 55.4807 43.5295 55.5544 43.5939 55.6123C43.6583 55.6689 43.7441 55.6973 43.8514 55.6973ZM44.1998 56.7111V56.0409H43.931L43.4632 56.7111H42.9368L43.4765 55.9672C43.3363 55.9244 43.2265 55.8533 43.147 55.7538C43.0687 55.6532 43.0296 55.533 43.0296 55.3933C43.0296 55.1831 43.1003 55.0169 43.2416 54.8948C43.3843 54.7715 43.5755 54.7098 43.8154 54.7098H44.6618V56.7111H44.1998Z" fill="#A89060"/>
</svg>
