<svg width="34" height="34" viewBox="0 0 34 34" fill="none" xmlns="http://www.w3.org/2000/svg">
<g clip-path="url(#clip0_6861_307)">
<path d="M17.0002 2.83331C9.18016 2.83331 2.8335 9.17998 2.8335 17C2.8335 24.82 9.18016 31.1666 17.0002 31.1666C24.8202 31.1666 31.1668 24.82 31.1668 17C31.1668 9.17998 24.8202 2.83331 17.0002 2.83331ZM17.0002 7.08331C19.3518 7.08331 21.2502 8.98165 21.2502 11.3333C21.2502 13.685 19.3518 15.5833 17.0002 15.5833C14.6485 15.5833 12.7502 13.685 12.7502 11.3333C12.7502 8.98165 14.6485 7.08331 17.0002 7.08331ZM17.0002 27.2C13.4585 27.2 10.3277 25.3866 8.50016 22.6383C8.54266 19.8191 14.1668 18.275 17.0002 18.275C19.8193 18.275 25.4577 19.8191 25.5002 22.6383C23.6727 25.3866 20.5418 27.2 17.0002 27.2Z" fill="#0D1C41"/>
</g>
<defs>
<clipPath id="clip0_6861_307">
<rect width="34" height="34" fill="white"/>
</clipPath>
</defs>
</svg>
