<svg width="96" height="74" viewBox="0 0 96 74" fill="none" xmlns="http://www.w3.org/2000/svg">
<path d="M46.1405 36.1982C39.4428 22.6168 22.1405 -1.8669 6.51257 8.84938C-9.11534 19.5657 22.6231 47.5116 28.7627 49.7441C34.9022 51.9767 38.184 45.9268 31.6289 39.547C23.1813 31.3255 12.6521 64.1052 24.373 69.6866C33.7498 74.1517 48.2975 50.3023 48.9312 45.6866C49.5648 41.0709 46.1405 36.1982 46.1405 36.1982Z" stroke="black" stroke-width="3"/>
<path d="M49.7526 33.9657C56.4503 20.3843 73.7526 -4.09939 89.3805 6.61689C105.008 17.3332 73.2699 45.2791 67.1304 47.5116C60.9909 49.7442 57.7091 43.6943 64.2642 37.3145C72.7118 29.093 83.241 61.8727 71.52 67.4541C62.1433 71.9192 47.5955 48.0698 46.9619 43.4541C46.3283 38.8384 49.7526 33.9657 49.7526 33.9657Z" stroke="black" stroke-width="3"/>
</svg>
