<svg width="390" height="311" viewBox="0 0 390 311" fill="none" xmlns="http://www.w3.org/2000/svg">
<g clip-path="url(#clip0_6861_470)" filter="url(#filter0_dd_6861_470)">
<path opacity="0.9" d="M26.9512 157.971C7.47032 225.825 133.61 257.841 201.016 247.952C286.292 235.488 334.358 188.956 333.054 117.288C331.766 46.2766 251.758 5.59408 191.479 35.5326C161.772 50.29 140.015 77.0793 110.382 92.4017C75.2088 110.641 39.1215 115.568 26.9512 157.971Z" fill="#DDD0A4"/>
<path d="M193.315 304.007C282.273 304.007 354.387 299.796 354.387 294.601C354.387 289.406 282.273 285.195 193.315 285.195C104.358 285.195 32.2432 289.406 32.2432 294.601C32.2432 299.796 104.358 304.007 193.315 304.007Z" fill="#A89060"/>
<path d="M121.872 32.9734C115.6 27.082 105.257 25.952 101.386 32.0843C97.5145 38.2165 99.7243 44.6978 91.7824 51.4949C86.3826 56.1398 90.3868 70.3737 121.191 69.0691C135.77 68.4542 130.835 53.2814 130.445 46.1104C130.055 38.9395 130.03 30.1648 121.872 32.9734Z" fill="#263238"/>
<path d="M109.735 283.118L102.275 283.408L102.133 275.332L109.593 275.041L109.735 283.118Z" fill="#FDCEA4"/>
<path d="M101.809 281.863H110.241C110.39 281.861 110.534 281.911 110.651 282.003C110.767 282.095 110.848 282.225 110.881 282.37L112.343 289.059C112.376 289.222 112.373 289.39 112.333 289.552C112.293 289.713 112.217 289.864 112.111 289.992C112.005 290.121 111.871 290.224 111.72 290.294C111.569 290.364 111.404 290.399 111.238 290.397C108.289 290.347 106.86 290.172 103.147 290.172C100.862 290.172 94.9389 290.413 91.7821 290.413C88.6253 290.413 88.2265 287.289 89.5142 287.006C95.3294 285.735 98.7105 283.99 100.571 282.32C100.913 282.019 101.354 281.856 101.809 281.863Z" fill="#263238"/>
<path opacity="0.2" d="M102.133 275.34L102.2 279.096L109.66 278.772L109.593 275.049L102.133 275.34Z" fill="black"/>
<path d="M91.1341 120.446C89.4726 129.403 91.3833 173.185 93.9171 192.521C97.2899 218.197 100.779 277.816 100.779 277.816L110.748 277.218C110.748 277.218 113.24 214.433 111.205 193.817C112.36 167.285 115.217 120.944 115.217 120.944L91.1341 120.446Z" fill="#4A607A"/>
<path opacity="0.2" d="M113.564 149.819C113.913 143.097 109.153 137.123 107.234 149.819C106.021 157.888 108.53 172.03 111.82 182.018C112.326 171.623 112.974 160.048 113.564 149.819Z" fill="black"/>
<path d="M164.547 257.998L159.695 262.635L153.124 255.589L157.967 250.96L164.547 257.998Z" fill="#FDCEA4"/>
<path d="M158.424 262.76L163.408 255.929C163.49 255.811 163.613 255.727 163.754 255.697C163.894 255.666 164.041 255.69 164.164 255.763L169.98 259.187C170.123 259.282 170.245 259.405 170.34 259.548C170.435 259.692 170.499 259.853 170.53 260.022C170.561 260.191 170.558 260.365 170.52 260.532C170.483 260.7 170.412 260.858 170.312 260.998C168.542 263.35 167.57 264.388 165.386 267.396C164.04 269.241 162.486 271.784 160.634 274.343C158.781 276.902 156.247 275.066 156.796 273.828C159.288 268.269 158.233 266.723 158.1 264.073C158.057 263.611 158.171 263.148 158.424 262.76Z" fill="#263238"/>
<path opacity="0.2" d="M153.124 255.597L156.513 259.22L161.323 254.55L157.976 250.96L153.124 255.597Z" fill="black"/>
<path d="M102.698 120.687C102.698 120.687 113.431 177.19 116.223 199.127C117.884 212.231 154.52 259.378 154.52 259.378L160.775 252.788C160.775 252.788 147.367 218.271 131.218 197.797C130.578 173.8 133.303 134.297 124.032 121.127L102.698 120.687Z" fill="#4A607A"/>
<path d="M93.2775 77.3618C93.2775 82.2145 93.0532 86.9757 92.696 91.7868C92.3388 96.5979 91.8653 101.384 91.0927 106.204L90.9515 107.109L90.7604 108.131C90.6164 108.802 90.4586 109.458 90.2869 110.101C89.9213 111.372 89.4561 112.593 89.0408 113.773C88.1318 116.087 87.1003 118.35 85.9504 120.554C83.6862 124.863 81.1066 128.998 78.2328 132.926C77.9295 133.334 77.4864 133.614 76.9888 133.715C76.4911 133.816 75.9738 133.729 75.5362 133.471C75.0985 133.214 74.7714 132.804 74.6174 132.32C74.4635 131.836 74.4937 131.312 74.7022 130.849V130.799C76.6544 126.578 78.5485 122.249 80.2017 117.961C81.0324 115.817 81.7718 113.649 82.4031 111.521C82.7022 110.458 82.968 109.403 83.1757 108.372C83.2837 107.857 83.3585 107.35 83.4333 106.852L83.5163 106.112L83.5994 105.281C84.0231 100.678 84.2723 96.008 84.5049 91.3298C84.7375 86.6517 84.8455 81.932 84.9784 77.2953V77.2538C84.9961 76.1519 85.4506 75.1022 86.242 74.3355C87.0335 73.5688 88.097 73.148 89.1986 73.1656C90.3002 73.1832 91.3497 73.6379 92.1162 74.4295C92.8827 75.2211 93.3035 76.2849 93.2858 77.3867L93.2775 77.3618Z" fill="#FDCEA4"/>
<path d="M90.5694 71.2877C80.3679 74.2708 81.6805 92.8338 81.6805 92.8338L96.1852 96.7392C96.1852 96.7392 98.5943 83.1451 98.3784 78.2675C98.1624 73.1988 96.1935 69.6508 90.5694 71.2877Z" fill="#4A607A"/>
<path d="M75.7824 129.777L70.6733 134.123L77.8343 137.048C77.8343 137.048 80.0524 133.666 79.0223 130.459L75.7824 129.777Z" fill="#FDCEA4"/>
<path d="M71.5786 140.754L74.8435 141.161C75.2061 141.206 75.5736 141.131 75.889 140.946C76.2044 140.761 76.4501 140.477 76.588 140.139L77.8341 137.048L70.6731 134.123L70.1331 138.917C70.0839 139.352 70.208 139.789 70.4786 140.133C70.7492 140.476 71.1445 140.7 71.5786 140.754Z" fill="#FDCEA4"/>
<path d="M87.2715 76.1154C86.8145 94.7283 91.0929 108.314 91.1427 120.446L124.032 121.127C123.791 108.979 123.89 101.052 129.116 79.2813C129.343 78.333 129.37 77.3478 129.195 76.3886C129.02 75.4294 128.647 74.5171 128.1 73.7102C127.553 72.9032 126.843 72.2193 126.017 71.702C125.191 71.1848 124.265 70.8455 123.301 70.706C121.332 70.4152 119.147 70.141 116.929 69.9914C111.958 69.5307 106.961 69.4252 101.976 69.6757C98.4698 69.9249 94.6983 70.4401 92.0067 70.8473C90.728 71.0375 89.5557 71.6676 88.6914 72.6292C87.8271 73.5907 87.325 74.8235 87.2715 76.1154Z" fill="#4A607A"/>
<path d="M117.926 93.3157L108.173 93.2492C108.076 93.2534 107.979 93.2366 107.889 93.1998C107.799 93.163 107.718 93.1071 107.652 93.0361C107.585 92.965 107.535 92.8804 107.505 92.7881C107.474 92.6958 107.464 92.598 107.475 92.5014L108.015 87.8814C108.05 87.6752 108.157 87.488 108.316 87.3528C108.476 87.2175 108.678 87.1428 108.887 87.1419L118.632 87.2084C118.728 87.2029 118.825 87.2186 118.915 87.2545C119.005 87.2903 119.086 87.3453 119.153 87.4158C119.219 87.4862 119.269 87.5704 119.3 87.6623C119.331 87.7542 119.341 87.8517 119.33 87.9479L118.79 92.5762C118.756 92.7817 118.651 92.9688 118.493 93.1041C118.335 93.2395 118.134 93.3145 117.926 93.3157Z" fill="white"/>
<path opacity="0.4" d="M102.025 69.684C102.025 69.684 96.6586 73.4398 102.333 82.8626C106.991 78.3303 111.873 74.0346 116.962 69.9914L102.025 69.684Z" fill="white"/>
<path d="M115.832 53.1401C114.794 57.9263 113.664 66.7176 116.962 69.9915C111.776 72.0348 106.994 74.9833 102.84 78.6997C99.1926 72.0023 102.009 69.6757 102.009 69.6757C107.392 68.5124 107.342 64.5322 106.486 60.7764L115.832 53.1401Z" fill="#FDCEA4"/>
<path opacity="0.2" d="M114.819 53.9711C114.689 56.8309 113.95 59.63 112.65 62.1807C111.745 63.9339 109.327 64.6735 106.893 64.8147C106.974 63.4565 106.842 62.094 106.503 60.7764L114.819 53.9711Z" fill="black"/>
<path d="M123.616 47.282C121.124 54.9433 120.293 58.2338 115.309 61.2251C107.874 65.7205 99.0098 61.0257 99.1261 52.7911C99.2424 45.3792 103.28 34.1034 111.645 32.9484C113.498 32.6802 115.388 32.8907 117.136 33.5599C118.885 34.2292 120.432 35.3349 121.632 36.7718C122.832 38.2086 123.645 39.9289 123.992 41.7686C124.339 43.6084 124.21 45.5064 123.616 47.282Z" fill="#FDCEA4"/>
<path d="M103.305 37.2194C107.458 38.391 117.577 39.2635 119.604 38.0503C117.701 40.9752 119.512 48.9688 122.453 50.9049C126.416 47.7224 127.296 40.028 123.633 36.214C119.969 32.4 108.389 27.8382 103.305 37.2194Z" fill="#263238"/>
<path d="M124.779 51.9685C124.517 52.6984 124.111 53.3685 123.586 53.9393C123.061 54.5101 122.427 54.9701 121.722 55.2922C119.845 56.1232 118.598 54.5278 118.864 52.5917C119.105 50.855 120.376 48.3207 122.387 48.2874C122.82 48.2934 123.246 48.4062 123.626 48.6158C124.006 48.8255 124.329 49.1255 124.565 49.4893C124.801 49.8532 124.945 50.2697 124.982 50.7021C125.019 51.1345 124.95 51.5694 124.779 51.9685Z" fill="#FDCEA4"/>
<path d="M124.563 119.208L125.992 122.191C126.1 122.415 125.826 122.648 125.444 122.639L90.943 121.916C90.6522 121.916 90.4113 121.759 90.3947 121.568L90.1538 118.618C90.1538 118.418 90.403 118.252 90.727 118.252L124.04 118.95C124.142 118.944 124.244 118.964 124.335 119.01C124.427 119.055 124.506 119.123 124.563 119.208Z" fill="#263238"/>
<path d="M120.019 122.839H120.908C121.082 122.839 121.224 122.747 121.215 122.639L120.875 118.8C120.875 118.692 120.709 118.593 120.534 118.593H119.637C119.462 118.593 119.329 118.676 119.338 118.792L119.67 122.623C119.687 122.747 119.836 122.839 120.019 122.839Z" fill="#4A607A"/>
<path d="M93.4438 122.29H94.341C94.5154 122.29 94.6566 122.207 94.6483 122.091L94.3077 118.252C94.3077 118.144 94.1416 118.053 93.9671 118.044H93.0699C92.8955 118.044 92.7542 118.127 92.7709 118.244L93.1032 122.074C93.1198 122.191 93.2693 122.282 93.4438 122.29Z" fill="#4A607A"/>
<path d="M106.727 122.565H107.625C107.799 122.565 107.94 122.482 107.932 122.365L107.591 118.535C107.591 118.418 107.425 118.327 107.251 118.327H106.354C106.179 118.327 106.046 118.418 106.055 118.526L106.387 122.365C106.403 122.465 106.553 122.565 106.727 122.565Z" fill="#4A607A"/>
<path d="M111.662 46.6422C111.496 47.2737 111.031 47.7058 110.615 47.5978C110.2 47.4898 110.001 46.8915 110.158 46.26C110.316 45.6285 110.79 45.1964 111.205 45.3044C111.621 45.4125 111.82 46.0107 111.662 46.6422Z" fill="#263238"/>
<path d="M104.501 44.8142C104.343 45.454 103.878 45.8777 103.463 45.7697C103.047 45.6617 102.839 45.0717 103.006 44.4319C103.172 43.7921 103.629 43.3766 104.044 43.4764C104.459 43.5761 104.667 44.1826 104.501 44.8142Z" fill="#263238"/>
<path d="M104.218 43.5594L102.806 42.7285C102.806 42.7285 103.288 44.1245 104.218 43.5594Z" fill="#263238"/>
<path d="M106.088 46.3846C105.158 47.6869 104.053 48.8556 102.806 49.8579C103.069 50.17 103.398 50.4209 103.768 50.5931C104.138 50.7653 104.541 50.8547 104.949 50.8551L106.088 46.3846Z" fill="#D19146"/>
<path d="M106.486 53.3396C106.457 53.3145 106.435 53.2818 106.423 53.2451C106.412 53.2084 106.41 53.1692 106.42 53.1318C106.427 53.1078 106.439 53.0854 106.456 53.0661C106.472 53.0468 106.492 53.0309 106.514 53.0193C106.537 53.0077 106.561 53.0007 106.586 52.9986C106.611 52.9965 106.637 52.9994 106.661 53.0072C107.437 53.2504 108.259 53.308 109.061 53.1752C109.863 53.0424 110.623 52.723 111.279 52.2427C111.318 52.2097 111.368 52.1933 111.419 52.1972C111.469 52.2011 111.516 52.2249 111.549 52.2635C111.583 52.3021 111.599 52.3522 111.595 52.4028C111.591 52.4535 111.567 52.5005 111.529 52.5336C110.826 53.0637 110.006 53.4161 109.138 53.5607C108.271 53.7054 107.381 53.6381 106.544 53.3645L106.486 53.3396Z" fill="#263238"/>
<path d="M115.566 43.7256C115.516 43.6806 115.474 43.6272 115.442 43.5678C115.27 43.1174 114.994 42.7144 114.635 42.3921C114.277 42.0699 113.847 41.8377 113.381 41.7148C113.281 41.6971 113.192 41.6404 113.133 41.557C113.075 41.4737 113.052 41.3705 113.07 41.2702C113.087 41.1699 113.144 41.0808 113.227 41.0224C113.311 40.9639 113.414 40.941 113.514 40.9586C114.107 41.1052 114.656 41.3914 115.115 41.7932C115.575 42.195 115.932 42.7009 116.156 43.2686C116.185 43.3467 116.189 43.4322 116.166 43.5125C116.143 43.5927 116.096 43.6636 116.03 43.7147C115.964 43.7658 115.883 43.7944 115.8 43.7964C115.716 43.7984 115.634 43.7736 115.566 43.7256Z" fill="#263238"/>
<path d="M103.089 40.7758L103.039 40.726C102.967 40.6543 102.927 40.5572 102.927 40.4559C102.927 40.3547 102.967 40.2575 103.039 40.1859C103.478 39.7742 104.007 39.4716 104.584 39.3027C105.162 39.1338 105.771 39.1033 106.362 39.2137C106.411 39.2262 106.458 39.2485 106.498 39.2792C106.539 39.31 106.573 39.3485 106.599 39.3927C106.624 39.4368 106.641 39.4856 106.647 39.5362C106.654 39.5868 106.65 39.6382 106.636 39.6873C106.611 39.7853 106.547 39.8693 106.46 39.9207C106.373 39.9721 106.269 39.9868 106.171 39.9615C105.697 39.8721 105.208 39.8971 104.746 40.0344C104.284 40.1717 103.861 40.4173 103.512 40.7509C103.452 40.7965 103.38 40.8232 103.304 40.8276C103.229 40.832 103.154 40.814 103.089 40.7758Z" fill="#263238"/>
<path d="M129.107 76.5807C131.525 79.7798 133.784 83.0039 135.977 86.3525C137.066 88.0144 138.146 89.6763 139.167 91.4711C140.268 93.2864 141.256 95.1679 142.125 97.1048C142.388 97.7086 142.615 98.3274 142.806 98.9578C142.944 99.4441 143.039 99.9419 143.089 100.445C143.102 100.647 143.102 100.85 143.089 101.052V101.426C143.073 101.59 143.048 101.754 143.014 101.916L142.956 102.174V102.29V102.381L142.889 102.564C142.499 103.561 142.191 104.567 141.726 105.53C140.884 107.506 139.872 109.405 138.702 111.206C137.498 113.024 136.087 114.697 134.499 116.191C133.69 116.95 132.82 117.642 131.899 118.26C131.425 118.568 130.943 118.867 130.445 119.141L129.656 119.523C129.356 119.656 129.14 119.748 128.708 119.906L127.13 116.117C127.242 116.007 127.362 115.904 127.487 115.809L127.944 115.41C128.252 115.136 128.551 114.837 128.841 114.529C129.433 113.894 129.988 113.226 130.503 112.527C131.518 111.1 132.402 109.584 133.145 107.998C133.494 107.167 133.876 106.386 134.166 105.506C134.457 104.625 134.781 103.844 135.047 103.013C135.313 102.182 135.521 101.268 135.778 100.404V100.246V100.163V100.237V100.404C135.778 100.503 135.737 100.653 135.728 100.711C135.724 100.775 135.724 100.839 135.728 100.902V101.143C135.728 101.334 135.728 101.276 135.728 101.193C135.728 101.11 135.496 100.661 135.321 100.312C134.565 98.8913 133.552 97.2544 132.513 95.6922C131.475 94.1301 130.395 92.5264 129.29 90.9559C127.089 87.8067 124.821 84.6242 122.594 81.4999L129.107 76.5807Z" fill="#FDCEA4"/>
<path d="M130.91 118.925L124.505 123.454L121.631 116.906C121.631 116.906 125.519 114.82 128.584 116.216L130.91 118.925Z" fill="#FDCEA4"/>
<path d="M120.044 123.994L118.441 121.759C118.136 121.327 118.012 120.795 118.094 120.273C118.176 119.752 118.459 119.283 118.881 118.967L121.631 116.906L124.505 123.454L122.744 124.542C122.308 124.81 121.787 124.902 121.286 124.8C120.785 124.699 120.341 124.41 120.044 123.994Z" fill="#FDCEA4"/>
<path d="M116.289 74.6031C114.112 83.2531 127.537 98.0604 127.537 98.0604L138.827 86.3359C138.827 86.3359 133.668 75.3177 126.931 71.861C122.229 69.4513 117.253 70.7891 116.289 74.6031Z" fill="#4A607A"/>
<path d="M111.38 45.3875L109.967 44.5566C109.967 44.5566 110.441 45.9525 111.38 45.3875Z" fill="#263238"/>
<path d="M96.9493 97.7114C96.8886 97.7109 96.8294 97.6926 96.7792 97.6586C96.7289 97.6246 96.6898 97.5764 96.6669 97.5202C96.6399 97.4464 96.643 97.3649 96.6757 97.2933C96.7083 97.2218 96.7678 97.166 96.8413 97.138L98.1373 96.6395C99.3511 96.1911 100.399 95.3828 101.142 94.3226C101.884 93.2624 102.285 92.0009 102.291 90.7066L102.382 78.5583C102.409 77.6335 102.117 76.7276 101.555 75.9924C100.994 75.2571 100.197 74.7369 99.2978 74.5189C98.3988 74.3009 97.4523 74.3983 96.6165 74.7948C95.7807 75.1913 95.1064 75.8628 94.7063 76.6971L89.0905 87.4992C88.4872 88.6396 88.2436 89.9361 88.3919 91.2178C88.5402 92.4995 89.0734 93.7061 89.9213 94.6785L90.8351 95.7171C90.8658 95.7457 90.8903 95.7804 90.9067 95.819C90.9232 95.8576 90.9314 95.8992 90.9307 95.9412C90.9301 95.9831 90.9206 96.0245 90.9029 96.0626C90.8852 96.1006 90.8597 96.1345 90.8281 96.1621C90.7964 96.1897 90.7593 96.2102 90.7192 96.2225C90.679 96.2348 90.6368 96.2385 90.5951 96.2333C90.5535 96.2282 90.5134 96.2144 90.4774 96.1927C90.4415 96.1711 90.4105 96.1421 90.3865 96.1077L89.4727 94.9776C88.537 93.9209 87.9459 92.6038 87.7782 91.2023C87.6104 89.8007 87.8741 88.3813 88.5339 87.1336L94.1497 76.3314C94.6297 75.4095 95.406 74.6761 96.3535 74.2492C97.3011 73.8224 98.3647 73.727 99.373 73.9784C100.381 74.2298 101.276 74.8134 101.912 75.6352C102.548 76.457 102.89 77.4691 102.881 78.5085L102.789 90.6567C102.783 92.0659 102.349 93.4398 101.545 94.5971C100.741 95.7543 99.6048 96.6403 98.2868 97.138L96.9908 97.6283L96.9493 97.7114Z" fill="#263238"/>
<path d="M102.59 81.2672C102.513 81.2652 102.439 81.2342 102.384 81.1803C102.328 81.1264 102.295 81.0535 102.291 80.9763C102.173 80.0162 101.767 79.1143 101.127 78.3895C100.486 77.6647 99.6414 77.1511 98.7032 76.9163C97.7651 76.6814 96.7778 76.7365 95.8715 77.0741C94.9652 77.4117 94.1825 78.0161 93.6265 78.8076C93.6074 78.842 93.5817 78.8722 93.5509 78.8967C93.5201 78.9211 93.4848 78.9393 93.447 78.9501C93.4092 78.9609 93.3697 78.9641 93.3306 78.9597C93.2916 78.9552 93.2538 78.943 93.2194 78.9239C93.185 78.9048 93.1548 78.8792 93.1303 78.8484C93.1059 78.8176 93.0877 78.7823 93.0769 78.7444C93.0661 78.7066 93.0629 78.6671 93.0674 78.628C93.0719 78.5889 93.084 78.5512 93.1031 78.5168C93.7212 77.6029 94.6051 76.9011 95.6352 76.5063C96.6652 76.1114 97.7917 76.0426 98.8621 76.3091C99.9325 76.5757 100.895 77.1647 101.62 77.9965C102.345 78.8283 102.796 79.8627 102.914 80.9597C102.914 81.0385 102.884 81.1142 102.83 81.1714C102.776 81.2286 102.702 81.2629 102.623 81.2672H102.59Z" fill="#263238"/>
<path d="M99.3501 74.628C99.301 74.6274 99.2527 74.615 99.2093 74.5919C99.166 74.5688 99.1288 74.5356 99.1009 74.4951C98.9491 74.1581 98.8706 73.7928 98.8706 73.4232C98.8706 73.0536 98.9491 72.6882 99.1009 72.3513C99.3166 71.6811 99.6802 71.068 100.165 70.5574C100.649 70.0468 101.243 69.6517 101.901 69.4015C101.937 69.3872 101.976 69.3807 102.015 69.3823C102.054 69.3838 102.092 69.3935 102.128 69.4107C102.163 69.4279 102.194 69.4522 102.219 69.4821C102.244 69.512 102.263 69.5468 102.274 69.5843C102.298 69.6582 102.293 69.7385 102.259 69.8083C102.225 69.878 102.165 69.9318 102.092 69.9582C101.528 70.1893 101.022 70.5401 100.607 70.9863C100.193 71.4325 99.8799 71.9634 99.6907 72.5424C99.5668 72.7997 99.495 73.079 99.4793 73.3642C99.4636 73.6494 99.5044 73.9349 99.5994 74.2043C99.6208 74.2375 99.6355 74.2746 99.6426 74.3136C99.6496 74.3525 99.6489 74.3924 99.6404 74.4311C99.6319 74.4697 99.6158 74.5063 99.5931 74.5387C99.5703 74.5711 99.5414 74.5986 99.508 74.6197C99.4567 74.6348 99.4027 74.6377 99.3501 74.628Z" fill="#263238"/>
<path d="M96.2682 97.2544C96.127 97.7945 96.2682 98.3096 96.667 98.401C97.0657 98.4924 97.4313 98.1185 97.5642 97.5701C97.6971 97.0217 97.5143 96.5065 97.1571 96.4234C96.7999 96.3404 96.4011 96.706 96.2682 97.2544Z" fill="#263238"/>
<path d="M119.845 82.9041C120.111 84.1589 121.008 85.023 121.83 84.8485C122.653 84.674 123.101 83.5024 122.827 82.256C122.553 81.0096 121.664 80.1288 120.842 80.3116C120.019 80.4944 119.571 81.6827 119.845 82.9041Z" fill="#263238"/>
<path d="M122.445 82.5136C122.407 82.5147 122.369 82.5083 122.333 82.4947C122.297 82.4811 122.265 82.4606 122.237 82.4343C122.209 82.4081 122.187 82.3766 122.171 82.3418C122.156 82.3069 122.147 82.2693 122.146 82.2311C121.971 77.636 120.227 71.9275 116.829 70.2407C116.759 70.2051 116.706 70.1433 116.681 70.0686C116.656 69.994 116.662 69.9125 116.696 69.8419C116.713 69.8064 116.737 69.7746 116.766 69.7485C116.796 69.7225 116.83 69.7026 116.867 69.6902C116.905 69.6778 116.944 69.673 116.983 69.6762C117.022 69.6795 117.06 69.6906 117.095 69.7089C120.734 71.5121 122.553 77.287 122.736 82.1729C122.739 82.2121 122.735 82.2515 122.722 82.2887C122.709 82.3259 122.689 82.3601 122.662 82.389C122.636 82.4179 122.603 82.441 122.567 82.4567C122.531 82.4725 122.493 82.4805 122.453 82.4804L122.445 82.5136Z" fill="#263238"/>
<path d="M118.956 83.0122C119.13 84.0841 119.903 84.8486 120.684 84.7239C121.464 84.5993 121.963 83.6271 121.788 82.5469C121.614 81.4667 120.833 80.7105 120.052 80.8351C119.271 80.9598 118.781 81.932 118.956 83.0122Z" fill="white"/>
<path d="M118.889 83.1035C119.138 84.433 119.836 85.4135 120.443 85.2972C121.049 85.1809 121.323 84.0176 121.074 82.6881C120.825 81.3586 120.127 80.3781 119.521 80.4944C118.914 80.6107 118.632 81.7741 118.889 83.1035Z" fill="#263238"/>
<path d="M89.9877 95.6839C89.8548 96.2324 90.0376 96.7475 90.3948 96.8306C90.752 96.9137 91.1508 96.5564 91.292 95.9997C91.4332 95.443 91.2422 94.9444 90.8849 94.853C90.5277 94.7616 90.129 95.1438 89.9877 95.6839Z" fill="#263238"/>
<path d="M180.987 28.021C175.729 28.9599 175.064 28.478 174.997 24.6973C174.931 20.9165 173.02 14.6097 175.679 12.6321C175.861 12.459 176.086 12.3369 176.33 12.2778C176.574 12.2187 176.83 12.2248 177.071 12.2954C177.313 12.3661 177.531 12.4988 177.705 12.6804C177.879 12.8619 178.003 13.0859 178.063 13.3301C178.225 12.9154 178.541 12.5793 178.945 12.392C179.349 12.2047 179.81 12.1805 180.231 12.3247C180.339 11.5436 180.464 9.54103 181.893 9.00092C183.321 8.46082 184.634 9.75708 184.634 9.75708C184.634 9.75708 184.526 6.67431 186.603 6.97345C187.223 7.07255 187.799 7.35628 188.255 7.78762C188.712 8.21895 189.027 8.77788 189.162 9.39146C189.162 9.39146 190.358 7.64651 191.978 8.33618C193.598 9.02586 193.257 11.0533 193.257 11.0533C193.257 11.0533 194.977 10.2224 196.256 11.1613C197.535 12.1003 196.605 13.6043 196.605 13.6043C196.605 13.6043 197.768 10.6129 199.986 12.2665C201.98 13.7622 200.169 16.1054 200.169 16.1054C200.169 16.1054 202.362 15.7481 202.894 16.8532C204.688 20.6174 197.851 24.8219 197.627 31.1785C187.126 35.1504 180.987 28.021 180.987 28.021Z" fill="#263238"/>
<path d="M143.089 129.046L139.583 128.398L134.947 132.827C134.695 133.067 134.496 133.357 134.363 133.68C134.23 134.002 134.166 134.348 134.175 134.696L134.241 138.319C134.249 138.939 134.488 139.533 134.91 139.986C135.333 140.439 135.908 140.719 136.526 140.77L138.137 140.912C138.724 140.967 139.311 140.813 139.794 140.477C140.278 140.141 140.627 139.644 140.779 139.075L141.61 136.117C141.61 136.117 146.187 130.708 143.089 129.046Z" fill="#FFB573"/>
<path d="M178.495 62.7872C176.144 68.878 173.801 74.9936 171.541 81.1259C169.282 87.2582 167.039 93.4154 164.937 99.4729L164.563 100.595L164.306 101.326C164.206 101.6 164.106 101.883 164.015 102.099C163.624 103.088 163.234 103.902 162.844 104.724C162.063 106.386 161.273 107.874 160.476 109.378C158.873 112.369 157.219 115.252 155.55 118.127C152.227 123.886 148.904 129.511 145.464 135.22L134.889 128.639C138.378 123.213 141.743 117.612 144.966 112.02C146.553 109.211 148.115 106.395 149.568 103.603C150.291 102.207 150.989 100.811 151.604 99.448C151.894 98.7916 152.185 98.1185 152.376 97.5701C152.443 97.4122 152.468 97.3042 152.509 97.1962L152.642 96.7641L153.024 95.5509C155.026 89.1694 157.128 83.0038 159.155 76.7469L165.236 58.0426L178.495 62.7872Z" fill="#C2D4FE"/>
<path opacity="0.6" d="M178.495 62.7872C176.144 68.878 173.801 74.9936 171.541 81.1259C169.282 87.2582 167.039 93.4154 164.937 99.4729L164.563 100.595L164.306 101.326C164.206 101.6 164.106 101.883 164.015 102.099C163.624 103.088 163.234 103.902 162.844 104.724C162.063 106.386 161.273 107.874 160.476 109.378C158.873 112.369 157.219 115.252 155.55 118.127C152.227 123.886 148.904 129.511 145.464 135.22L134.889 128.639C138.378 123.213 141.743 117.612 144.966 112.02C146.553 109.211 148.115 106.395 149.568 103.603C150.291 102.207 150.989 100.811 151.604 99.448C151.894 98.7916 152.185 98.1185 152.376 97.5701C152.443 97.4122 152.468 97.3042 152.509 97.1962L152.642 96.7641L153.024 95.5509C155.026 89.1694 157.128 83.0038 159.155 76.7469L165.236 58.0426L178.495 62.7872Z" fill="white"/>
<path d="M146.81 285.187L139.358 285.552L142.881 266.141L149.967 267.77L146.81 285.187Z" fill="#FFB573"/>
<path d="M200.269 285.469H192.817L192.842 268.211H200.285L200.269 285.469Z" fill="#FFB573"/>
<path d="M192.111 284.605H201.191C201.337 284.603 201.479 284.652 201.591 284.745C201.704 284.838 201.78 284.968 201.805 285.112L203.002 291.759C203.028 291.924 203.019 292.092 202.973 292.252C202.928 292.413 202.849 292.561 202.741 292.688C202.632 292.814 202.498 292.916 202.346 292.985C202.195 293.054 202.03 293.09 201.863 293.089C198.939 293.039 196.813 292.864 193.132 292.864C190.873 292.864 183.994 293.097 180.904 293.097C177.814 293.097 177.498 290.006 178.786 289.723C184.601 288.469 188.979 286.74 190.881 285.087C191.218 284.781 191.656 284.61 192.111 284.605Z" fill="#263238"/>
<path opacity="0.2" d="M142.881 266.15L141.253 275.124L148.339 276.753L149.967 267.778L142.881 266.15Z" fill="black"/>
<path opacity="0.2" d="M200.285 268.211H192.833V277.102H200.285V268.211Z" fill="black"/>
<path d="M206.283 62.5712C200.468 88.7373 202.013 114.563 201.39 120.155L161.622 117.529C157.469 85.9537 162.104 65.8119 164.738 57.5524C165.166 56.189 165.975 54.9769 167.071 54.0594C168.166 53.142 169.501 52.5577 170.918 52.3757C176.832 51.7274 182.787 51.5412 188.73 51.8189C192.753 52.0597 196.746 52.666 200.659 53.6304C202.589 54.0722 204.265 55.2616 205.319 56.9377C206.373 58.6138 206.72 60.6398 206.283 62.5712Z" fill="#C2D4FE"/>
<path d="M194.295 34.0868C192.983 39.0143 191.429 47.7391 193.93 52.1513C194.32 52.841 193.573 53.431 193.539 54.2287C193.448 56.6716 190.142 57.4028 184.227 57.4361C178.312 57.4693 175.778 55.0014 177.39 52.6748C177.637 52.3202 178.012 52.0758 178.436 51.9934C183.978 50.7554 184.086 46.4096 183.33 42.2632L194.295 34.0868Z" fill="#FFB573"/>
<path opacity="0.4" d="M183.803 56.0816C185.357 58.2429 186.342 60.7602 186.669 63.4021C192.576 60.6268 195.392 53.8879 195.392 53.8879L193.614 51.9851C193.614 51.9851 187.051 53.2232 183.803 56.0816Z" fill="black"/>
<path opacity="0.4" d="M183.222 56.1065C181.047 57.8772 179.212 60.0282 177.805 62.4549C173.677 59.8956 175.039 52.6 175.039 52.6L178.404 51.9352C178.404 51.9352 179.907 53.3229 183.222 56.1065Z" fill="black"/>
<path d="M183.487 55.9237L182.216 56.0483L180.065 57.4692C179.928 58.3251 180.08 59.2023 180.497 59.962C181.747 60.2062 183.022 60.2927 184.293 60.2196C185.146 59.8076 185.826 59.1071 186.212 58.242L184.634 56.2228L183.487 55.9237Z" fill="#263238"/>
<path d="M183.487 55.9238C185.083 57.9217 186.307 60.1901 187.101 62.6211C193.008 59.8458 196.447 53.2149 196.447 53.2149L193.597 50.7221C193.597 50.7221 186.735 53.082 183.487 55.9238Z" fill="#C2D4FE"/>
<path d="M183.487 55.9237C181.208 57.3624 179.214 59.2104 177.606 61.3746C173.452 58.8237 175.039 51.9519 175.039 51.9519L178.403 51.2871C178.403 51.2871 180.181 53.1567 183.487 55.9237Z" fill="#C2D4FE"/>
<path opacity="0.2" d="M189.826 37.4189L183.346 42.2549C183.542 43.2545 183.651 44.2693 183.67 45.2878C186.005 45.1133 189.361 42.795 189.768 40.3687C189.963 39.3967 189.983 38.3977 189.826 37.4189Z" fill="black"/>
<path d="M195.483 25.9437C194.545 33.2808 194.37 37.5767 190.399 41.1581C184.426 46.4677 175.562 42.4959 174.291 35.0258C173.145 28.3035 174.873 17.4349 182.275 14.9837C183.904 14.4342 185.647 14.3107 187.338 14.625C189.029 14.9392 190.611 15.6807 191.935 16.7789C193.259 17.8772 194.279 19.2958 194.9 20.8998C195.522 22.5039 195.722 24.2402 195.483 25.9437Z" fill="#FFB573"/>
<path d="M193.689 32.5745C192.028 30.9708 193.066 23.293 193.905 21.091C189.751 21.4899 176.327 21.4732 176.833 17.7673C177.34 14.0613 182.225 10.9121 190.208 13.5129C196.854 15.6816 198.516 18.997 198.516 21.7059C198.615 27.2731 193.689 32.5745 193.689 32.5745Z" fill="#263238"/>
<path d="M198.058 32.6576C197.269 34.1657 195.922 35.305 194.304 35.8318C192.185 36.4882 191.138 34.5355 191.737 32.4416C192.268 30.5637 194.021 27.9462 196.139 28.2121C198.258 28.478 199.03 30.788 198.058 32.6576Z" fill="#FFB573"/>
<path d="M138.827 272.847L151.147 275.564C151.147 275.564 163.126 228.608 166.682 205.658C167.77 198.678 170.296 188.715 172.597 178.237C175.496 165.025 179.143 150.733 182.134 139.541C185.29 127.75 187.633 119.274 187.633 119.274L161.623 117.554C161.623 117.554 149.519 178.968 147.076 201.578C144.526 225.077 138.827 272.847 138.827 272.847Z" fill="#263238"/>
<path opacity="0.2" d="M172.597 178.22C175.496 165.009 179.143 150.717 182.133 139.524L179.4 133.707C172.945 141.418 171.292 165.275 172.597 178.22Z" fill="black"/>
<path d="M174.017 118.352C174.017 118.352 179.4 181.112 181.494 202.841C183.82 226.639 190.059 275.39 190.059 275.39H202.57C202.57 275.39 203.135 223.473 200.908 200.489C200.592 155.303 201.382 120.163 201.382 120.163L174.017 118.352Z" fill="#263238"/>
<path d="M188.464 275.681H204.53V270.878L187.841 269.956L188.464 275.681Z" fill="#C2D4FE"/>
<path d="M137.215 272.797L151.895 276.038L152.941 271.293L137.573 267.421L137.215 272.797Z" fill="#C2D4FE"/>
<path d="M184.758 27.2565C184.758 27.8548 184.368 28.3201 183.978 28.2952C183.587 28.2703 183.296 27.7634 183.338 27.1651C183.379 26.5669 183.728 26.1015 184.119 26.1265C184.509 26.1514 184.8 26.6583 184.758 27.2565Z" fill="#263238"/>
<path d="M177.98 26.8411C177.98 27.4393 177.589 27.9047 177.199 27.8797C176.808 27.8548 176.518 27.3479 176.559 26.7497C176.601 26.1514 176.95 25.6861 177.34 25.711C177.73 25.7359 178.021 26.2096 177.98 26.8411Z" fill="#263238"/>
<path d="M179.533 27.2565C178.696 29.0391 177.62 30.6996 176.335 32.1923C177.324 33.2559 179.16 32.9235 179.16 32.9235L179.533 27.2565Z" fill="#ED893E"/>
<path d="M181.585 34.6934C182.258 34.6554 182.917 34.4812 183.521 34.1813C184.125 33.8813 184.662 33.4619 185.099 32.9484C185.13 32.916 185.147 32.8728 185.147 32.8279C185.147 32.7831 185.13 32.7399 185.099 32.7075C185.065 32.6759 185.021 32.6584 184.974 32.6584C184.928 32.6584 184.884 32.6759 184.85 32.7075C184.357 33.2705 183.738 33.7097 183.044 33.9897C182.35 34.2697 181.6 34.3827 180.854 34.3195C180.831 34.3172 180.808 34.3195 180.786 34.3262C180.764 34.3329 180.743 34.3439 180.725 34.3586C180.708 34.3732 180.693 34.3913 180.682 34.4117C180.672 34.4321 180.665 34.4544 180.663 34.4773C180.66 34.5245 180.676 34.5707 180.707 34.6063C180.738 34.642 180.782 34.6642 180.829 34.6685C181.08 34.692 181.333 34.7004 181.585 34.6934Z" fill="#263238"/>
<path d="M186.412 25.1792C186.471 25.1724 186.528 25.1526 186.578 25.121C186.657 25.0699 186.712 24.9898 186.733 24.8981C186.753 24.8063 186.736 24.7103 186.686 24.6308C186.389 24.1527 185.983 23.7525 185.5 23.4634C185.017 23.1743 184.473 23.0048 183.911 22.9689C183.827 22.9819 183.75 23.0246 183.694 23.0894C183.639 23.1542 183.608 23.2367 183.608 23.3221C183.608 23.4074 183.639 23.4899 183.694 23.5547C183.75 23.6195 183.827 23.6622 183.911 23.6752C184.355 23.708 184.784 23.8456 185.164 24.0767C185.544 24.3079 185.863 24.6259 186.096 25.0047C186.127 25.0604 186.173 25.1063 186.229 25.1372C186.285 25.168 186.348 25.1826 186.412 25.1792Z" fill="#263238"/>
<path d="M174.632 24.2901C174.689 24.286 174.745 24.2681 174.795 24.2377C174.844 24.2073 174.885 24.1654 174.914 24.1156C175.126 23.7295 175.426 23.3988 175.79 23.1505C176.154 22.9021 176.571 22.7431 177.008 22.6864C177.1 22.678 177.186 22.6346 177.248 22.5652C177.31 22.4957 177.343 22.4054 177.34 22.3125C177.334 22.2192 177.291 22.1321 177.221 22.0699C177.151 22.0078 177.06 21.9755 176.966 21.9801C176.408 22.0475 175.875 22.248 175.411 22.5647C174.947 22.8814 174.566 23.305 174.3 23.7998C174.255 23.8803 174.243 23.9753 174.268 24.0641C174.293 24.1528 174.352 24.2281 174.432 24.2735C174.495 24.3017 174.565 24.3076 174.632 24.2901Z" fill="#263238"/>
<path d="M189.594 285.901C190.255 285.885 190.912 285.796 191.554 285.635C191.588 285.627 191.618 285.61 191.642 285.585C191.666 285.56 191.681 285.528 191.687 285.494C191.696 285.462 191.694 285.427 191.682 285.396C191.67 285.364 191.649 285.338 191.621 285.319C191.355 285.145 189.012 283.658 188.165 284.09C188.073 284.138 187.995 284.209 187.94 284.297C187.885 284.384 187.853 284.485 187.849 284.588C187.819 284.759 187.834 284.935 187.89 285.099C187.947 285.264 188.044 285.411 188.173 285.527C188.589 285.812 189.091 285.944 189.594 285.901ZM191.047 285.386C189.776 285.644 188.804 285.594 188.414 285.253C188.325 285.174 188.259 285.074 188.221 284.962C188.183 284.85 188.175 284.729 188.198 284.613C188.198 284.48 188.264 284.43 188.314 284.405C188.754 284.189 190.1 284.821 191.047 285.386Z" fill="#C2D4FE"/>
<path d="M191.512 285.643C191.542 285.655 191.574 285.655 191.604 285.643C191.632 285.628 191.656 285.605 191.672 285.577C191.688 285.55 191.696 285.518 191.695 285.486C191.695 285.394 191.604 283.242 190.765 282.536C190.663 282.447 190.544 282.381 190.415 282.342C190.286 282.304 190.15 282.293 190.017 282.311C189.884 282.312 189.755 282.357 189.651 282.44C189.547 282.523 189.474 282.639 189.444 282.768C189.253 283.599 190.673 285.261 191.429 285.652C191.457 285.657 191.486 285.655 191.512 285.643ZM190.133 282.619C190.281 282.62 190.423 282.677 190.532 282.777C191.064 283.225 191.255 284.48 191.313 285.112C190.574 284.53 189.651 283.292 189.784 282.802C189.784 282.76 189.784 282.652 190.05 282.627H190.133V282.619Z" fill="#C2D4FE"/>
<path d="M138.245 282.27L146.985 284.763C147.124 284.803 147.246 284.89 147.327 285.01C147.409 285.13 147.447 285.275 147.433 285.419L146.785 292.125C146.764 292.29 146.708 292.448 146.62 292.589C146.532 292.73 146.414 292.851 146.276 292.942C146.137 293.034 145.98 293.094 145.815 293.12C145.651 293.145 145.483 293.134 145.323 293.089C142.524 292.258 140.53 291.502 137.016 290.496C134.839 289.881 127.753 287.339 125.17 285.577C122.586 283.815 124.106 281.098 125.327 281.597C130.819 283.824 134.682 283.466 136.958 282.428C137.355 282.224 137.811 282.169 138.245 282.27Z" fill="#263238"/>
<path d="M135.462 282.835C136.104 282.995 136.761 283.087 137.423 283.109C137.458 283.111 137.494 283.103 137.525 283.085C137.556 283.068 137.581 283.041 137.597 283.01C137.617 282.982 137.627 282.948 137.627 282.914C137.627 282.88 137.617 282.846 137.597 282.818C137.39 282.586 135.537 280.525 134.615 280.7C134.512 280.722 134.417 280.771 134.339 280.84C134.26 280.91 134.201 280.999 134.166 281.098C134.094 281.254 134.062 281.425 134.072 281.596C134.082 281.767 134.135 281.933 134.224 282.079C134.541 282.462 134.977 282.728 135.462 282.835ZM137.007 282.735C135.711 282.636 134.789 282.32 134.515 281.904C134.459 281.801 134.43 281.685 134.43 281.568C134.43 281.45 134.459 281.335 134.515 281.231C134.565 281.098 134.631 281.073 134.69 281.065C135.163 280.957 136.243 281.938 137.007 282.769V282.735Z" fill="#C2D4FE"/>
<path d="M137.382 283.101C137.414 283.109 137.449 283.109 137.481 283.101C137.513 283.093 137.543 283.076 137.566 283.053C137.59 283.029 137.606 283 137.614 282.968C137.614 282.885 138.129 280.791 137.523 279.877C137.449 279.766 137.352 279.671 137.239 279.599C137.126 279.528 136.999 279.481 136.867 279.461C136.738 279.426 136.601 279.434 136.477 279.485C136.354 279.536 136.251 279.627 136.185 279.744C135.77 280.492 136.7 282.453 137.307 283.068C137.329 283.085 137.354 283.096 137.382 283.101ZM136.875 279.819C137.017 279.858 137.139 279.95 137.216 280.076C137.614 280.658 137.448 281.921 137.34 282.569C136.784 281.813 136.252 280.375 136.509 279.935C136.509 279.894 136.584 279.802 136.817 279.835L136.875 279.819Z" fill="#C2D4FE"/>
<path d="M194.42 51.5031C194.332 51.489 194.241 51.4951 194.156 51.521C194.07 51.547 193.991 51.5921 193.926 51.653C193.86 51.7138 193.809 51.7888 193.777 51.8723C193.744 51.9557 193.731 52.0454 193.739 52.1347C194.03 56.5885 187.093 64.5986 185.431 88.5877C184.443 103.179 183.537 148.672 184.202 172.337C184.212 172.648 184.292 172.952 184.437 173.227C184.582 173.502 184.787 173.74 185.038 173.923C185.288 174.107 185.578 174.231 185.883 174.286C186.189 174.341 186.503 174.325 186.802 174.24C199.064 170.817 204.854 179.118 207.213 169.329C207.089 157.605 203.541 115.51 204.455 105.53C205.369 95.5509 209.166 68.4376 210.113 61.2084C210.952 54.9266 197.851 52.1263 194.42 51.5031Z" fill="#C2D4FE"/>
<path opacity="0.7" d="M194.42 51.5031C194.332 51.489 194.241 51.4951 194.156 51.521C194.07 51.547 193.991 51.5921 193.926 51.653C193.86 51.7138 193.809 51.7888 193.777 51.8723C193.744 51.9557 193.731 52.0454 193.739 52.1347C194.03 56.5885 187.093 64.5986 185.431 88.5877C184.443 103.179 183.537 148.672 184.202 172.337C184.212 172.648 184.292 172.952 184.437 173.227C184.582 173.502 184.787 173.74 185.038 173.923C185.288 174.107 185.578 174.231 185.883 174.286C186.189 174.341 186.503 174.325 186.802 174.24C199.064 170.817 204.854 179.118 207.213 169.329C207.089 157.605 203.541 115.51 204.455 105.53C205.369 95.5509 209.166 68.4376 210.113 61.2084C210.952 54.9266 197.851 52.1263 194.42 51.5031Z" fill="white"/>
<path opacity="0.2" d="M202.503 71.8361C201.963 75.5421 201.755 90.5155 205.319 97.7197C205.918 92.7341 206.698 86.8096 207.454 81.101L202.503 71.8361Z" fill="#C2D4FE"/>
<path d="M207.596 136.591L204.057 137.006L200.925 142.598C200.753 142.901 200.647 143.236 200.612 143.583C200.578 143.929 200.616 144.279 200.725 144.609L201.855 148.049C202.047 148.638 202.451 149.134 202.988 149.442C203.526 149.749 204.158 149.845 204.763 149.711L206.341 149.379C206.921 149.261 207.44 148.94 207.806 148.474C208.171 148.009 208.359 147.428 208.335 146.836L208.235 143.778C208.235 143.778 211.043 137.289 207.596 136.591Z" fill="#FFB573"/>
<path d="M209.539 58.4165C210.669 61.7402 211.716 65.0224 212.754 68.3462C213.793 71.6699 214.831 74.9936 215.811 78.3174C216.792 81.6411 217.739 85.0396 218.611 88.5046C219.043 90.2413 219.442 91.9945 219.824 93.8309C219.998 94.7532 220.173 95.6922 220.314 96.6893C220.38 97.2045 220.455 97.6781 220.497 98.2514L220.572 99.0824L220.613 100.021C220.63 100.337 220.63 100.653 220.613 100.969C220.613 101.301 220.613 101.617 220.572 101.874L220.497 102.705L220.405 103.453C220.289 104.459 220.14 105.373 219.99 106.287C219.691 108.098 219.342 109.843 218.985 111.571C218.27 115.028 217.473 118.41 216.667 121.775C215.861 125.14 215.006 128.497 214.175 131.846L211.683 141.892L199.654 138.626C201.514 132.137 203.209 125.531 204.779 118.967C205.543 115.643 206.258 112.386 206.898 109.137C207.213 107.475 207.512 105.896 207.728 104.334C207.853 103.553 207.953 102.78 208.019 102.082C208.084 101.531 208.106 100.975 208.086 100.42V100.071L208.027 99.6225C208.027 99.34 207.928 98.9661 207.878 98.642C207.762 97.944 207.612 97.2045 207.446 96.4483C207.105 94.936 206.698 93.3739 206.258 91.8034C205.427 88.6542 204.372 85.4634 203.3 82.2892C201.182 75.9409 198.798 69.551 196.339 63.3356L209.539 58.4165Z" fill="#C2D4FE"/>
<path opacity="0.7" d="M209.539 58.4165C210.669 61.7402 211.716 65.0224 212.754 68.3462C213.793 71.6699 214.831 74.9936 215.811 78.3174C216.792 81.6411 217.739 85.0396 218.611 88.5046C219.043 90.2413 219.442 91.9945 219.824 93.8309C219.998 94.7532 220.173 95.6922 220.314 96.6893C220.38 97.2045 220.455 97.6781 220.497 98.2514L220.572 99.0824L220.613 100.021C220.63 100.337 220.63 100.653 220.613 100.969C220.613 101.301 220.613 101.617 220.572 101.874L220.497 102.705L220.405 103.453C220.289 104.459 220.14 105.373 219.99 106.287C219.691 108.098 219.342 109.843 218.985 111.571C218.27 115.028 217.473 118.41 216.667 121.775C215.861 125.14 215.006 128.497 214.175 131.846L211.683 141.892L199.654 138.626C201.514 132.137 203.209 125.531 204.779 118.967C205.543 115.643 206.258 112.386 206.898 109.137C207.213 107.475 207.512 105.896 207.728 104.334C207.853 103.553 207.953 102.78 208.019 102.082C208.084 101.531 208.106 100.975 208.086 100.42V100.071L208.027 99.6225C208.027 99.34 207.928 98.9661 207.878 98.642C207.762 97.944 207.612 97.2045 207.446 96.4483C207.105 94.936 206.698 93.3739 206.258 91.8034C205.427 88.6542 204.372 85.4634 203.3 82.2892C201.182 75.9409 198.798 69.551 196.339 63.3356L209.539 58.4165Z" fill="white"/>
<path d="M178.262 50.88C178.445 50.8786 178.624 50.9292 178.779 51.0258C178.934 51.1224 179.058 51.2611 179.137 51.4257C179.217 51.5903 179.247 51.7739 179.226 51.9554C179.205 52.1368 179.133 52.3085 179.018 52.4504C177.041 54.7438 175.795 57.893 173.452 67.9972C170.627 80.187 164.613 141.518 163.483 171.573C163.478 171.823 163.418 172.068 163.308 172.293C163.199 172.517 163.042 172.715 162.848 172.873C162.655 173.031 162.43 173.145 162.188 173.208C161.946 173.27 161.694 173.279 161.448 173.235C155.583 172.155 151.562 174.996 150.922 171.232C150.216 167.078 152.85 127.392 157.776 108.73C157.003 92.1773 159.795 58.9733 165.369 54.561C168.393 52.1098 174.823 50.9381 178.262 50.88Z" fill="#C2D4FE"/>
<path opacity="0.7" d="M178.262 50.88C178.445 50.8786 178.624 50.9292 178.779 51.0258C178.934 51.1224 179.058 51.2611 179.137 51.4257C179.217 51.5903 179.247 51.7739 179.226 51.9554C179.205 52.1368 179.133 52.3085 179.018 52.4504C177.041 54.7438 175.795 57.893 173.452 67.9972C170.627 80.187 164.613 141.518 163.483 171.573C163.478 171.823 163.418 172.068 163.308 172.293C163.199 172.517 163.042 172.715 162.848 172.873C162.655 173.031 162.43 173.145 162.188 173.208C161.946 173.27 161.694 173.279 161.448 173.235C155.583 172.155 151.562 174.996 150.922 171.232C150.216 167.078 152.85 127.392 157.776 108.73C157.003 92.1773 159.795 58.9733 165.369 54.561C168.393 52.1098 174.823 50.9381 178.262 50.88Z" fill="white"/>
<path d="M181.494 59.1145C181.494 59.1145 174.316 79.2813 171.791 96.1824C171.591 100.777 173.776 109.677 175.545 113.557C179.242 105.506 181.552 100.761 181.917 96.1824C182.507 89.294 183.479 59.2475 183.479 59.2475L181.494 59.1145Z" fill="#263238"/>
<path d="M196.514 83.1036C196.441 83.1012 196.371 83.075 196.315 83.029C196.258 82.983 196.219 82.9197 196.202 82.849C196.185 82.7782 196.191 82.7038 196.221 82.6372C196.25 82.5707 196.3 82.5156 196.364 82.4804L197.727 81.7658C198.998 81.1114 200.041 80.0849 200.714 78.8231C201.388 77.5613 201.662 76.124 201.498 74.7029L200.019 61.3082C199.91 60.3097 199.468 59.377 198.765 58.6605C198.061 57.9441 197.136 57.4855 196.14 57.3588C195.144 57.2321 194.134 57.4446 193.274 57.9621C192.413 58.4796 191.752 59.272 191.396 60.2114L186.611 72.8C186.096 74.1342 185.999 75.5936 186.333 76.9843C186.667 78.375 187.416 79.6312 188.48 80.5859L189.627 81.6245C189.688 81.6867 189.722 81.7702 189.722 81.8572C189.722 81.9442 189.688 82.0277 189.627 82.0899C189.565 82.1508 189.481 82.1849 189.394 82.1849C189.307 82.1849 189.224 82.1508 189.162 82.0899L188.015 81.0595C186.855 80.0118 186.041 78.6363 185.681 77.1152C185.32 75.5942 185.43 73.9994 185.997 72.5424L190.823 59.9787C191.235 58.9053 191.996 58.0012 192.982 57.4114C193.969 56.8216 195.126 56.5801 196.266 56.7257C197.406 56.8713 198.465 57.3955 199.272 58.2143C200.079 59.0331 200.588 60.0992 200.717 61.2417L202.196 74.6281C202.371 76.1858 202.067 77.7598 201.325 79.1404C200.583 80.521 199.438 81.6426 198.042 82.3558L196.68 83.0621C196.631 83.0939 196.572 83.1085 196.514 83.1036Z" fill="#263238"/>
<path d="M200.634 64.2331C200.555 64.2337 200.478 64.2053 200.418 64.1533C200.359 64.1012 200.32 64.0291 200.31 63.9506C200.117 62.8733 199.57 61.8912 198.756 61.1598C197.942 60.4283 196.907 59.9893 195.816 59.9122C193.971 59.6796 191.463 60.2612 190.457 62.6875C190.443 62.7305 190.42 62.7701 190.39 62.8039C190.359 62.8376 190.322 62.8648 190.281 62.8838C190.24 62.9027 190.195 62.913 190.15 62.914C190.105 62.9151 190.06 62.9068 190.018 62.8898C189.975 62.8727 189.937 62.8473 189.906 62.8149C189.874 62.7826 189.849 62.7441 189.832 62.7018C189.816 62.6595 189.809 62.6143 189.81 62.569C189.812 62.5237 189.823 62.4792 189.843 62.4383C190.404 61.3516 191.286 60.464 192.369 59.8956C193.452 59.3272 194.684 59.1056 195.897 59.2606C197.11 59.4157 198.246 59.94 199.152 60.7626C200.057 61.5851 200.687 62.6662 200.958 63.8592C200.97 63.944 200.948 64.03 200.896 64.0985C200.845 64.167 200.768 64.2124 200.684 64.2248L200.634 64.2331Z" fill="#263238"/>
<path d="M196.165 57.3612C196.121 57.3591 196.079 57.3484 196.04 57.3296C196.001 57.3108 195.966 57.2843 195.937 57.2518C195.909 57.2192 195.887 57.1813 195.873 57.1401C195.859 57.099 195.854 57.0555 195.857 57.0122C195.957 55.3919 195.724 52.4421 194.196 51.6777C194.118 51.6369 194.059 51.5667 194.032 51.4826C194.006 51.3984 194.014 51.3072 194.055 51.229C194.095 51.1507 194.166 51.0919 194.25 51.0654C194.334 51.0389 194.425 51.0469 194.503 51.0877C196.713 52.2261 196.514 56.5635 196.48 57.0538C196.476 57.1354 196.441 57.2124 196.383 57.2695C196.324 57.3265 196.246 57.3593 196.165 57.3612Z" fill="#263238"/>
<path d="M190.142 81.9568C190.059 82.58 189.668 83.037 189.261 82.9789C188.854 82.9207 188.588 82.3889 188.671 81.774C188.755 81.1591 189.137 80.6938 189.544 80.752C189.951 80.8101 190.217 81.3419 190.142 81.9568Z" fill="#263238"/>
<path d="M170.827 68.4874C170.303 69.8086 169.165 70.6063 168.335 70.2656C167.504 69.925 167.18 68.6038 167.703 67.2494C168.227 65.8949 169.365 65.1305 170.195 65.4712C171.026 65.8119 171.342 67.1663 170.827 68.4874Z" fill="#263238"/>
<path d="M168.094 67.6316H168.028C167.942 67.6136 167.867 67.5624 167.819 67.4893C167.77 67.4162 167.753 67.3269 167.77 67.241C168.867 61.7818 173.403 53.1152 177.398 50.6224C177.435 50.5911 177.477 50.568 177.523 50.5547C177.569 50.5414 177.618 50.5382 177.665 50.5453C177.712 50.5525 177.758 50.5697 177.798 50.596C177.838 50.6223 177.872 50.6569 177.897 50.6975C177.922 50.7381 177.939 50.7837 177.945 50.8312C177.951 50.8787 177.947 50.927 177.933 50.9727C177.919 51.0185 177.895 51.0606 177.863 51.0962C177.831 51.1318 177.791 51.1601 177.747 51.1791C173.884 53.6137 169.49 61.9812 168.418 67.3574C168.405 67.4337 168.365 67.5029 168.306 67.553C168.246 67.603 168.172 67.6308 168.094 67.6316Z" fill="#263238"/>
<path d="M171.774 68.7616C171.392 69.9 170.412 70.6063 169.581 70.3321C168.75 70.0579 168.376 68.9029 168.75 67.7562C169.124 66.6095 170.112 65.9115 170.943 66.1858C171.774 66.46 172.156 67.615 171.774 68.7616Z" fill="white"/>
<path d="M171.832 68.878C171.326 70.2823 170.387 71.2378 169.747 71.0052C169.108 70.7725 169 69.443 169.515 68.0304C170.03 66.6178 170.96 65.6706 171.6 65.9032C172.239 66.1359 172.347 67.4654 171.832 68.878Z" fill="#263238"/>
<path d="M197.253 82.8709C197.178 83.4858 196.779 83.9428 196.372 83.893C195.965 83.8431 195.699 83.2947 195.782 82.6798C195.865 82.0649 196.256 81.6079 196.663 81.6577C197.07 81.7076 197.336 82.2477 197.253 82.8709Z" fill="#263238"/>
<path d="M244.356 46.8665C247.131 54.453 239.754 58.267 234.919 69.443C230.084 80.6191 241.747 93.9472 259.65 94.2381C277.552 94.5289 278.117 77.3784 275.342 65.0723C272.568 52.7662 278.366 50.7636 277.137 41.3658C275.558 29.0181 257.772 19.6618 250.711 30.9957C244.431 30.4058 241.93 40.2357 244.356 46.8665Z" fill="#263238"/>
<path d="M297.382 148.988V148.024C297.366 147.562 297.249 147.108 297.042 146.695L294.034 140.762L290.512 140.097C288.02 142.781 290.512 148.132 290.512 148.132V148.988C290.512 149.689 290.741 150.371 291.164 150.931C291.587 151.49 292.18 151.896 292.855 152.088L293.328 152.229C293.816 152.358 294.327 152.37 294.82 152.266C295.314 152.162 295.776 151.944 296.17 151.629C296.564 151.314 296.879 150.911 297.089 150.452C297.3 149.994 297.4 149.492 297.382 148.988Z" fill="#FFC3BD"/>
<path d="M282.453 72.667L283.749 81.7574L285.112 90.8229C285.56 93.8558 286.034 96.8721 286.516 99.8967L287.953 108.904L288.127 109.793C288.186 110.084 288.285 110.458 288.36 110.782L288.609 111.804L288.9 112.859C289.274 114.255 289.731 115.701 290.129 117.13C290.96 119.997 291.916 122.897 292.854 125.78C294.765 131.539 296.759 137.322 298.885 143.006L287.139 147.16L281.257 129.594C280.285 126.661 279.297 123.728 278.358 120.736C277.893 119.233 277.427 117.745 276.987 116.191L276.647 115.036L276.323 113.831C276.215 113.416 276.098 113.05 275.999 112.593L275.691 111.231L273.955 102.09C273.401 99.0768 272.822 96.0633 272.219 93.0498L270.441 84.0092L268.588 75.0352L282.453 72.667Z" fill="#C1CEEC"/>
<path opacity="0.6" d="M282.453 72.667L283.749 81.7574L285.112 90.8229C285.56 93.8558 286.034 96.8721 286.516 99.8967L287.953 108.904L288.127 109.793C288.186 110.084 288.285 110.458 288.36 110.782L288.609 111.804L288.9 112.859C289.274 114.255 289.731 115.701 290.129 117.13C290.96 119.997 291.916 122.897 292.854 125.78C294.765 131.539 296.759 137.322 298.885 143.006L287.139 147.16L281.257 129.594C280.285 126.661 279.297 123.728 278.358 120.736C277.893 119.233 277.427 117.745 276.987 116.191L276.647 115.036L276.323 113.831C276.215 113.416 276.098 113.05 275.999 112.593L275.691 111.231L273.955 102.09C273.401 99.0768 272.822 96.0633 272.219 93.0498L270.441 84.0092L268.588 75.0352L282.453 72.667Z" fill="white"/>
<path d="M280.585 71.969C280.975 76.3979 280.626 87.4161 276.182 114.729H245.444C245.934 102.863 245.968 95.3016 240.875 72.6587C240.76 72.1495 240.749 71.622 240.845 71.1088C240.941 70.5956 241.142 70.1074 241.434 69.6745C241.725 69.2416 242.103 68.8731 242.543 68.5918C242.982 68.3105 243.475 68.1222 243.991 68.0387C246.992 67.5457 250.017 67.2156 253.054 67.0499C257.706 66.7172 262.375 66.7172 267.027 67.0499C270.848 67.3989 274.994 68.0886 277.503 68.5456C278.32 68.7008 279.064 69.1196 279.62 69.7379C280.177 70.3562 280.516 71.1399 280.585 71.969Z" fill="#263238"/>
<path d="M254.408 51.312C255.288 55.8074 256.169 64.0503 253.021 67.0499C253.021 67.0499 256.958 71.8361 262.989 71.8361C269.021 71.8361 267.002 67.0499 267.002 67.0499C262.017 65.8534 262.117 62.1308 262.989 58.6409L254.408 51.312Z" fill="#FFC3BD"/>
<path opacity="0.2" d="M257.906 54.3034L262.981 58.6326C262.766 59.4495 262.621 60.2836 262.549 61.1254C260.63 60.8512 257.623 59.2142 257.208 57.1286C257.017 56.1398 257.739 54.7688 257.906 54.3034Z" fill="black"/>
<path d="M249.116 42.4875C250.287 49.9161 250.628 53.0819 254.765 56.5552C260.996 61.7818 269.86 58.7156 270.931 51.0877C271.895 44.2242 269.81 33.2226 262.217 30.9542C260.544 30.4453 258.769 30.3724 257.06 30.7425C255.351 31.1126 253.765 31.9134 252.453 33.0688C251.14 34.2243 250.145 35.6961 249.561 37.3445C248.977 38.9929 248.824 40.7633 249.116 42.4875Z" fill="#FFC3BD"/>
<path d="M250.354 47.8387C254.607 43.6259 256.069 37.7678 255.671 35.3747C259.766 36.5131 262.773 34.9011 262.591 34.2031C265.482 37.0283 270.724 39.2635 270.134 36.2223C269.544 33.1811 265.664 27.5723 257.573 29.5748C249.482 31.5774 246.366 39.8867 246.483 43.2603C246.599 46.6339 250.354 47.8387 250.354 47.8387Z" fill="#263238"/>
<path d="M259.774 43.3268C259.833 43.9417 260.198 44.3987 260.605 44.3655C261.012 44.3322 261.278 43.8004 261.22 43.1938C261.162 42.5873 260.788 42.1219 260.389 42.1552C259.99 42.1884 259.774 42.7202 259.774 43.3268Z" fill="#263238"/>
<path d="M266.678 42.6704C266.736 43.2769 267.11 43.7423 267.508 43.7007C267.907 43.6592 268.181 43.144 268.123 42.5374C268.065 41.9308 267.691 41.4655 267.292 41.4987C266.894 41.532 266.62 42.0638 266.678 42.6704Z" fill="#263238"/>
<path d="M267.126 41.5485L268.547 40.9918C268.547 40.9918 267.899 42.205 267.126 41.5485Z" fill="#263238"/>
<path d="M264.667 43.9666C265.339 45.3041 266.192 46.5428 267.201 47.6476C266.912 47.8979 266.573 48.0825 266.205 48.1886C265.838 48.2948 265.452 48.32 265.075 48.2625L264.667 43.9666Z" fill="#ED847E"/>
<path d="M261.984 50.9381C262.286 50.9587 262.588 50.9587 262.89 50.9381C262.937 50.9319 262.98 50.9076 263.009 50.8704C263.039 50.8331 263.053 50.7859 263.048 50.7387C263.047 50.7153 263.041 50.6924 263.031 50.6714C263.02 50.6504 263.006 50.6319 262.988 50.617C262.97 50.6021 262.949 50.5911 262.926 50.5849C262.903 50.5787 262.88 50.5773 262.857 50.5808C262.101 50.6684 261.335 50.5771 260.621 50.3145C259.906 50.0518 259.264 49.625 258.745 49.0685C258.712 49.0394 258.671 49.0226 258.628 49.0212C258.584 49.0198 258.542 49.0338 258.508 49.0608C258.474 49.0877 258.451 49.1259 258.442 49.1684C258.434 49.2109 258.441 49.255 258.462 49.2929C258.911 49.7862 259.454 50.1856 260.059 50.468C260.663 50.7504 261.318 50.9102 261.984 50.9381Z" fill="#263238"/>
<path d="M247.471 48.5284C248.026 49.8734 249.089 50.9453 250.429 51.5115C252.206 52.2427 253.328 50.6805 253.02 48.9106C252.746 47.2488 251.484 44.9471 249.606 44.9803C249.197 45.0003 248.8 45.1206 248.449 45.3306C248.097 45.5407 247.803 45.834 247.592 46.1847C247.381 46.5354 247.26 46.9326 247.239 47.3414C247.218 47.7502 247.297 48.1578 247.471 48.5284Z" fill="#FFC3BD"/>
<path d="M257.407 40.136C257.478 40.1612 257.556 40.1636 257.629 40.1428C257.702 40.1219 257.767 40.0789 257.814 40.0197C258.861 38.7317 260.996 38.8563 261.012 38.8563C261.107 38.861 261.199 38.829 261.27 38.7671C261.341 38.7051 261.386 38.618 261.394 38.524C261.399 38.4768 261.394 38.4292 261.379 38.384C261.365 38.3389 261.342 38.2972 261.31 38.2614C261.279 38.2256 261.241 38.1966 261.199 38.176C261.156 38.1554 261.109 38.1438 261.062 38.1417C260.962 38.1417 258.528 37.9922 257.257 39.5709C257.198 39.6453 257.17 39.7399 257.179 39.8345C257.189 39.9291 257.235 40.0164 257.307 40.0778L257.407 40.136Z" fill="#263238"/>
<path d="M269.178 39.3799C269.257 39.3846 269.335 39.3632 269.401 39.3189C269.466 39.2746 269.515 39.2099 269.539 39.1349C269.564 39.0599 269.563 38.9789 269.537 38.9045C269.511 38.83 269.461 38.7664 269.394 38.7234C268.93 38.3952 268.393 38.1826 267.83 38.1031C267.266 38.0236 266.692 38.0796 266.155 38.2664C266.067 38.3048 265.998 38.3758 265.963 38.4643C265.927 38.5528 265.927 38.6518 265.963 38.74C265.982 38.784 266.008 38.8239 266.042 38.8574C266.076 38.891 266.116 38.9174 266.16 38.9352C266.204 38.953 266.251 38.9618 266.299 38.9611C266.346 38.9604 266.393 38.9502 266.437 38.9312C266.864 38.7889 267.319 38.7502 267.763 38.8181C268.208 38.886 268.631 39.0586 268.996 39.3217C269.05 39.357 269.113 39.3771 269.178 39.3799Z" fill="#263238"/>
<path d="M295.28 286.749L302.931 286.383L300.663 269.1L293.021 269.474L295.28 286.749Z" fill="#FFC3BD"/>
<g opacity="0.2">
<path opacity="0.2" d="M300.663 269.108L301.835 278.016L294.184 278.381L293.012 269.474L300.663 269.108Z" fill="black"/>
</g>
<path d="M276.182 114.729C276.182 114.729 285.81 173.102 289.731 195.861C293.818 219.526 303.023 275.224 303.023 275.224L292.904 276.885C292.904 276.885 279.264 221.13 273.797 197.947C267.866 172.645 253.494 138.718 253.644 114.795L276.182 114.729Z" fill="#4A607A"/>
<path opacity="0.2" d="M260.721 132.644C259.276 130.542 256.493 127.592 254.358 125.165C256.294 140.039 261.835 157.298 266.894 173.551C268.24 161.17 267.475 142.391 260.721 132.644Z" fill="black"/>
<path d="M248.078 285.577H255.654L256.161 268.028H248.576L248.078 285.577Z" fill="#FFC3BD"/>
<path d="M256.011 284.43H247.496C247.348 284.429 247.206 284.481 247.094 284.578C246.982 284.674 246.91 284.808 246.889 284.954L245.917 291.684C245.9 291.855 245.919 292.028 245.972 292.191C246.025 292.355 246.113 292.505 246.228 292.633C246.343 292.76 246.483 292.862 246.64 292.932C246.797 293.002 246.967 293.039 247.139 293.039C250.104 292.981 251.533 292.806 255.28 292.806C257.581 292.806 262.341 293.047 265.523 293.047C268.705 293.047 268.846 289.906 267.55 289.615C261.61 288.344 259.243 286.583 257.274 284.896C256.919 284.599 256.473 284.434 256.011 284.43Z" fill="#263238"/>
<g opacity="0.2">
<path opacity="0.2" d="M256.152 268.036L255.895 277.085H248.318L248.576 268.036H256.152Z" fill="black"/>
</g>
<path d="M267.534 114.729C267.534 114.729 264.46 173.85 262.383 196.867C260.215 220.814 257.606 275.082 257.606 275.082H247.355C247.355 275.082 245.527 221.022 246.242 197.407C247.014 171.648 240.825 138.651 245.004 114.729H267.534Z" fill="#4A607A"/>
<path d="M246.466 275.448L258.487 275.672L258.669 268.344L246.416 269.108L246.466 275.448Z" fill="#263238"/>
<path d="M258.852 285.785C259.499 285.844 260.147 285.68 260.688 285.32C260.81 285.211 260.904 285.073 260.96 284.92C261.017 284.766 261.034 284.601 261.012 284.439C261.006 284.341 260.976 284.246 260.923 284.164C260.871 284.081 260.799 284.012 260.713 283.965C259.783 283.45 256.759 284.995 256.418 285.178C256.386 285.196 256.361 285.223 256.344 285.256C256.328 285.288 256.322 285.325 256.327 285.361C256.331 285.398 256.348 285.432 256.373 285.459C256.398 285.486 256.432 285.504 256.468 285.511C257.252 285.678 258.051 285.77 258.852 285.785ZM260.206 284.214C260.321 284.211 260.434 284.234 260.539 284.281C260.574 284.299 260.603 284.326 260.623 284.36C260.644 284.394 260.655 284.433 260.655 284.472C260.673 284.577 260.664 284.686 260.627 284.786C260.591 284.887 260.529 284.976 260.447 285.045C259.99 285.461 258.744 285.536 257.066 285.253C258.046 284.73 259.108 284.378 260.206 284.214Z" fill="#407BFF"/>
<path d="M256.502 285.519H256.576C257.482 285.112 259.268 283.475 259.127 282.619C259.127 282.411 258.952 282.162 258.454 282.112C258.275 282.091 258.095 282.108 257.923 282.161C257.751 282.214 257.593 282.302 257.457 282.42C256.51 283.209 256.335 285.253 256.327 285.336C256.324 285.368 256.329 285.4 256.342 285.429C256.355 285.458 256.376 285.484 256.402 285.502C256.433 285.516 256.467 285.522 256.502 285.519ZM258.313 282.444H258.421C258.745 282.444 258.769 282.602 258.769 282.652C258.861 283.167 257.648 284.447 256.726 285.004C256.797 284.144 257.134 283.328 257.689 282.669C257.863 282.521 258.085 282.441 258.313 282.444Z" fill="#407BFF"/>
<path d="M302.84 284.43H294.325C294.257 284.426 294.188 284.437 294.124 284.462C294.061 284.488 294.004 284.527 293.957 284.577C293.91 284.627 293.875 284.686 293.854 284.752C293.833 284.817 293.826 284.886 293.835 284.954L294.267 291.684C294.317 292.05 294.495 292.386 294.768 292.634C295.042 292.881 295.394 293.025 295.762 293.039C298.72 292.981 300.115 292.806 303.854 292.806C306.163 292.806 310.973 293.047 314.155 293.047C317.336 293.047 316.846 289.906 315.467 289.615C309.262 288.344 306.553 286.583 304.202 284.896C303.807 284.605 303.331 284.442 302.84 284.43Z" fill="#263238"/>
<path d="M305.681 285.785C306.331 285.844 306.982 285.68 307.526 285.32C307.646 285.21 307.739 285.072 307.796 284.919C307.852 284.766 307.87 284.601 307.849 284.439C307.842 284.34 307.81 284.245 307.756 284.163C307.702 284.08 307.629 284.012 307.542 283.965C306.612 283.45 303.596 284.995 303.256 285.178C303.222 285.195 303.195 285.221 303.177 285.254C303.159 285.287 303.152 285.324 303.156 285.361C303.163 285.397 303.18 285.43 303.205 285.456C303.23 285.483 303.262 285.502 303.297 285.511C304.081 285.678 304.88 285.77 305.681 285.785ZM307.035 284.214C307.15 284.21 307.264 284.232 307.368 284.281C307.404 284.299 307.434 284.326 307.456 284.359C307.478 284.393 307.491 284.432 307.492 284.472C307.507 284.577 307.495 284.684 307.459 284.784C307.423 284.884 307.363 284.974 307.285 285.045C306.819 285.461 305.573 285.536 303.895 285.253C304.875 284.731 305.937 284.38 307.035 284.214Z" fill="#407BFF"/>
<path d="M303.339 285.519H303.413C304.311 285.112 306.097 283.475 305.955 282.619C305.955 282.411 305.781 282.162 305.283 282.112C305.105 282.092 304.926 282.108 304.756 282.161C304.586 282.214 304.428 282.302 304.294 282.419C303.339 283.209 303.164 285.253 303.156 285.336C303.155 285.368 303.161 285.399 303.174 285.428C303.187 285.457 303.206 285.482 303.231 285.502C303.265 285.516 303.302 285.522 303.339 285.519ZM305.141 282.444H305.249C305.573 282.444 305.598 282.602 305.607 282.652C305.69 283.167 304.477 284.447 303.555 285.004C303.629 284.145 303.965 283.33 304.518 282.669C304.693 282.522 304.914 282.443 305.141 282.444Z" fill="#407BFF"/>
<path d="M292.057 277.359L303.928 275.448L302.591 269.1L290.828 271.875L292.057 277.359Z" fill="#263238"/>
<path d="M260.248 42.205L261.669 41.6483C261.669 41.6483 261.029 42.8614 260.248 42.205Z" fill="#263238"/>
<path d="M244.946 112.926L244.165 115.684C244.057 115.892 244.306 116.117 244.664 116.117H276.331C276.614 116.117 276.838 115.975 276.855 115.801L277.137 113.05C277.137 112.859 276.913 112.693 276.614 112.693H245.453C245.355 112.685 245.257 112.702 245.169 112.743C245.08 112.783 245.003 112.846 244.946 112.926Z" fill="#263238"/>
<path d="M249.241 116.407H248.41C248.244 116.407 248.119 116.324 248.127 116.225L248.518 112.643C248.518 112.535 248.676 112.452 248.842 112.452H249.673C249.839 112.452 249.963 112.535 249.955 112.643L249.556 116.225C249.548 116.324 249.407 116.407 249.241 116.407Z" fill="#407BFF"/>
<path d="M273.989 116.407H273.158C272.992 116.407 272.859 116.324 272.875 116.225L273.266 112.643C273.266 112.535 273.424 112.452 273.59 112.452H274.421C274.587 112.452 274.711 112.535 274.703 112.643L274.313 116.225C274.296 116.324 274.155 116.407 273.989 116.407Z" fill="#407BFF"/>
<path d="M261.66 116.407H260.83C260.664 116.407 260.539 116.324 260.547 116.225L260.938 112.643C260.938 112.535 261.096 112.452 261.262 112.452H262.092C262.259 112.452 262.383 112.535 262.367 112.643L261.976 116.225C261.976 116.324 261.827 116.407 261.66 116.407Z" fill="#407BFF"/>
<path d="M251.691 66.8007C246.865 67.2411 239.488 66.327 239.712 73.7306C239.936 81.1343 238.499 100.744 238.881 109.926C239.263 119.108 236.871 178.561 240.742 195.795C241.423 198.828 266.429 198.437 269.452 198.146V195.412C269.452 195.412 287.621 192.97 292.115 193.751C291.725 183.397 281.664 131.098 281.274 116.407C280.883 101.716 282.537 76.4727 282.437 72.4676C282.337 68.4625 274.379 66.7009 269.502 66.8007C270.582 70.4152 268.198 77.2039 264.385 84.7738C255.006 75.6335 252.24 71.0966 251.691 66.8007Z" fill="#D2E0FF"/>
<path opacity="0.7" d="M251.691 66.8007C246.865 67.2411 239.488 66.327 239.712 73.7306C239.936 81.1343 238.499 100.744 238.881 109.926C239.263 119.108 236.871 178.561 240.742 195.795C241.423 198.828 266.429 198.437 269.452 198.146V195.412C269.452 195.412 287.621 192.97 292.115 193.751C291.725 183.397 281.664 131.098 281.274 116.407C280.883 101.716 282.537 76.4727 282.437 72.4676C282.337 68.4625 274.379 66.7009 269.502 66.8007C270.582 70.4152 268.198 77.2039 264.385 84.7738C255.006 75.6335 252.24 71.0966 251.691 66.8007Z" fill="white"/>
<path opacity="0.2" d="M242.503 84.3583L239.413 86.5436C239.172 92.9418 238.848 100.113 238.815 105.655C241.689 99.2984 243.309 90.1249 242.503 84.3583Z" fill="#407BFF"/>
<path d="M252.348 77.7191C252.191 77.9523 252.022 78.177 251.841 78.3922L251.666 78.5916L251.575 78.6913L251.409 78.8658L251.077 79.2231L250.412 79.9626C249.963 80.4529 249.531 80.9597 249.099 81.4749C248.235 82.5053 247.405 83.555 246.607 84.6242C244.978 86.7593 243.461 88.9781 242.063 91.2716C239.316 95.5057 237.331 100.188 236.198 105.107C235.989 106.204 235.858 107.315 235.808 108.43C235.859 108.985 236.02 109.525 236.281 110.018C237.336 112.251 238.604 114.377 240.069 116.366C241.606 118.559 243.351 120.695 245.137 122.806C246.034 123.869 246.964 124.9 247.903 125.922C248.842 126.944 249.822 127.991 250.736 128.896L241.781 137.555C240.692 136.366 239.729 135.286 238.723 134.148L235.791 130.716C233.847 128.414 231.978 126.021 230.134 123.512C228.131 120.861 226.4 118.016 224.966 115.02C224.547 114.091 224.189 113.137 223.895 112.161C223.722 111.581 223.586 110.989 223.488 110.391C223.424 110.048 223.38 109.701 223.355 109.353C223.321 108.988 223.308 108.622 223.313 108.256C223.333 106.472 223.486 104.691 223.77 102.93C224.345 99.6019 225.276 96.3454 226.545 93.216C227.739 90.2531 229.127 87.3719 230.699 84.5909C232.227 81.8488 233.905 79.2314 235.641 76.6721C236.522 75.3925 237.419 74.1378 238.358 72.8997L239.779 71.0467L240.518 70.1161L240.892 69.6507L241.083 69.4264L241.166 69.3184L241.05 69.4513C240.9 69.6424 240.759 69.8335 240.626 70.033L252.348 77.7191Z" fill="#D7E3FF"/>
<path opacity="0.7" d="M252.348 77.7191C252.191 77.9523 252.022 78.177 251.841 78.3922L251.666 78.5916L251.575 78.6913L251.409 78.8658L251.077 79.2231L250.412 79.9626C249.963 80.4529 249.531 80.9597 249.099 81.4749C248.235 82.5053 247.405 83.555 246.607 84.6242C244.978 86.7593 243.461 88.9781 242.063 91.2716C239.316 95.5057 237.331 100.188 236.198 105.107C235.989 106.204 235.858 107.315 235.808 108.43C235.859 108.985 236.02 109.525 236.281 110.018C237.336 112.251 238.604 114.377 240.069 116.366C241.606 118.559 243.351 120.695 245.137 122.806C246.034 123.869 246.964 124.9 247.903 125.922C248.842 126.944 249.822 127.991 250.736 128.896L241.781 137.555C240.692 136.366 239.729 135.286 238.723 134.148L235.791 130.716C233.847 128.414 231.978 126.021 230.134 123.512C228.131 120.861 226.4 118.016 224.966 115.02C224.547 114.091 224.189 113.137 223.895 112.161C223.722 111.581 223.586 110.989 223.488 110.391C223.424 110.048 223.38 109.701 223.355 109.353C223.321 108.988 223.308 108.622 223.313 108.256C223.333 106.472 223.486 104.691 223.77 102.93C224.345 99.6019 225.276 96.3454 226.545 93.216C227.739 90.2531 229.127 87.3719 230.699 84.5909C232.227 81.8488 233.905 79.2314 235.641 76.6721C236.522 75.3925 237.419 74.1378 238.358 72.8997L239.779 71.0467L240.518 70.1161L240.892 69.6507L241.083 69.4264L241.166 69.3184L241.05 69.4513C240.9 69.6424 240.759 69.8335 240.626 70.033L252.348 77.7191Z" fill="white"/>
<path opacity="0.3" d="M264.394 84.7737C265.266 102.506 270.001 164.344 269.461 195.412L270.907 195.221C270.907 195.221 268.664 147.443 267.65 126.536C266.637 105.63 264.394 84.7737 264.394 84.7737Z" fill="#407BFF"/>
<path opacity="0.3" d="M250.038 129.046L241.166 138.651C241.166 141.875 238.915 148.323 244.879 150.667C250.844 153.01 251.002 136.009 250.038 129.046Z" fill="#407BFF"/>
<path opacity="0.3" d="M278.965 128.747L282.869 138.535C282.985 141.859 284.124 148.506 281.814 151.041C279.505 153.575 278.832 135.951 278.965 128.747Z" fill="#407BFF"/>
<path d="M269.27 90.9475L279.015 90.8811C279.112 90.8853 279.209 90.8684 279.298 90.8316C279.388 90.7948 279.469 90.739 279.536 90.6679C279.602 90.5968 279.652 90.5122 279.683 90.4199C279.713 90.3276 279.723 90.2298 279.712 90.1332L279.172 85.5132C279.14 85.3132 279.04 85.1304 278.889 84.9957C278.737 84.861 278.544 84.7826 278.342 84.7737L268.589 84.8319C268.492 84.829 268.396 84.8469 268.307 84.8841C268.217 84.9214 268.137 84.9773 268.071 85.048C268.005 85.1188 267.955 85.2028 267.924 85.2945C267.893 85.3862 267.881 85.4834 267.891 85.5797L268.431 90.208C268.465 90.4087 268.567 90.5917 268.72 90.7263C268.872 90.8609 269.067 90.939 269.27 90.9475Z" fill="white" stroke="#407BFF" stroke-width="0.5" stroke-miterlimit="10"/>
</g>
<defs>
<filter id="filter0_dd_6861_470" x="-7" y="0" width="404" height="318" filterUnits="userSpaceOnUse" color-interpolation-filters="sRGB">
<feFlood flood-opacity="0" result="BackgroundImageFix"/>
<feColorMatrix in="SourceAlpha" type="matrix" values="0 0 0 0 0 0 0 0 0 0 0 0 0 0 0 0 0 0 127 0" result="hardAlpha"/>
<feOffset dx="-2" dy="-2"/>
<feGaussianBlur stdDeviation="2.5"/>
<feColorMatrix type="matrix" values="0 0 0 0 0.0791667 0 0 0 0 0.114 0 0 0 0 0.2375 0 0 0 0.15 0"/>
<feBlend mode="normal" in2="BackgroundImageFix" result="effect1_dropShadow_6861_470"/>
<feColorMatrix in="SourceAlpha" type="matrix" values="0 0 0 0 0 0 0 0 0 0 0 0 0 0 0 0 0 0 127 0" result="hardAlpha"/>
<feOffset dx="2" dy="2"/>
<feGaussianBlur stdDeviation="2.5"/>
<feColorMatrix type="matrix" values="0 0 0 0 0.0784314 0 0 0 0 0.113725 0 0 0 0 0.239216 0 0 0 0.15 0"/>
<feBlend mode="normal" in2="effect1_dropShadow_6861_470" result="effect2_dropShadow_6861_470"/>
<feBlend mode="normal" in="SourceGraphic" in2="effect2_dropShadow_6861_470" result="shape"/>
</filter>
<clipPath id="clip0_6861_470">
<rect width="390" height="304" fill="white" transform="translate(0 7)"/>
</clipPath>
</defs>
</svg>
