<svg width="391" height="315" viewBox="0 0 391 315" fill="none" xmlns="http://www.w3.org/2000/svg">
<g filter="url(#filter0_dd_6861_635)">
<path opacity="0.9" d="M59.4424 40.8202C115.735 -6.71035 221.551 -8.45175 257.153 64.0241C265.107 80.1387 264.754 99.2499 277.331 113.526C287.637 125.194 311.262 125.212 329.328 138.188C363.94 163.054 371.709 225.55 320.154 241.019C283.094 252.148 241.349 219.937 209.168 209.029C170.278 195.831 136.692 210.753 98.0228 202.39C22.1966 185.949 1.16956 90.0037 59.4424 40.8202Z" fill="#4A607A"/>
<path d="M194.673 306.406C100.027 306.406 23.3013 301.926 23.3013 296.399C23.3013 290.873 100.027 286.393 194.673 286.393C289.318 286.393 366.044 290.873 366.044 296.399C366.044 301.926 289.318 306.406 194.673 306.406Z" fill="#193554"/>
<path d="M207.78 89.6147C209.053 94.4676 210.432 99.2587 211.961 104.041C212.703 106.434 213.487 108.823 214.312 111.21C215.125 113.597 215.982 115.974 216.963 118.405L217.202 118.998C217.308 119.263 217.423 119.493 217.538 119.731C217.769 120.171 218.023 120.599 218.298 121.013C218.787 121.736 219.34 122.413 219.951 123.037C221.01 124.11 222.161 125.089 223.389 125.963C225.607 127.518 227.951 128.885 230.398 130.047C235.061 132.275 239.919 134.072 244.911 135.413L246.776 130.551C244.681 129.393 242.507 128.208 240.43 126.962C238.353 125.716 236.276 124.478 234.313 123.152C232.402 121.91 230.58 120.537 228.86 119.042C228.113 118.395 227.427 117.682 226.81 116.911C226.58 116.615 226.373 116.302 226.191 115.974C226.131 115.867 226.08 115.755 226.041 115.638C226.036 115.597 226.036 115.556 226.041 115.515V115.444L225.979 115.232C224.6 110.671 223.327 105.844 222.01 101.088C220.693 96.3328 219.359 91.5417 217.98 86.8037L207.78 89.6147Z" fill="#FBCA91"/>
<path d="M205.473 84.4612C202.415 90.6489 212.199 110.865 212.199 110.865L224.724 105.897C224.324 99.7624 223.136 93.7046 221.188 87.8733C218.015 79.069 208.867 77.6105 205.473 84.4612Z" fill="#0D1C41"/>
<path opacity="0.2" d="M205.164 85.248C208.125 84.258 211.13 85.7519 213.64 91.4357C216.15 97.1196 217.653 106.207 217.546 108.788L212.243 110.901C212.243 110.901 203.051 92.1164 205.164 85.248Z" fill="black"/>
<path d="M245.538 130.242L250.4 130.356C251.002 130.373 251.595 130.513 252.141 130.768C252.688 131.023 253.177 131.386 253.577 131.837C253.978 132.287 254.282 132.815 254.471 133.387C254.661 133.96 254.731 134.565 254.678 135.165C254.601 135.934 254.324 136.67 253.875 137.299C253.425 137.928 252.819 138.428 252.116 138.749C251.413 139.07 250.638 139.201 249.868 139.129C249.099 139.057 248.362 138.785 247.73 138.339C246.332 137.373 245.054 136.246 243.921 134.98L245.538 130.242Z" fill="#FBCA91"/>
<path d="M246.458 130.233C245.527 131.814 244.786 133.499 244.248 135.254C244.214 135.359 244.143 135.448 244.05 135.506C243.956 135.564 243.845 135.588 243.735 135.572C242.221 135.373 240.762 134.878 239.44 134.113C239.381 134.062 239.337 133.995 239.313 133.92C239.29 133.845 239.288 133.765 239.307 133.689C239.74 131.824 241.561 127.864 242.586 127.846C243.426 127.846 245.468 129.066 246.325 129.614C246.376 129.644 246.42 129.685 246.454 129.733C246.489 129.782 246.513 129.837 246.526 129.895C246.538 129.953 246.538 130.013 246.527 130.071C246.515 130.129 246.491 130.184 246.458 130.233Z" fill="#0D1C41"/>
<path d="M214.55 80.6072C214.55 80.6072 220.357 103.201 207.479 142.396L169.279 137.755C169.73 131.859 176.889 103.696 174.582 75.383C178.904 75.0807 183.241 75.06 187.566 75.3211C193.012 75.6633 198.433 76.3215 203.802 77.2923C207.466 78.1163 211.059 79.2246 214.55 80.6072Z" fill="#0D1C41"/>
<path d="M197.448 96.5715C197.462 96.5684 197.475 96.5625 197.487 96.554C197.499 96.5456 197.509 96.5348 197.516 96.5224C197.524 96.51 197.528 96.4962 197.53 96.4818C197.532 96.4675 197.531 96.4529 197.527 96.4389C196.405 92.4346 198.19 90.5606 200.904 87.7054C203.481 85.1468 205.683 82.2362 207.444 79.0603C211.916 70.7952 207.559 67.4892 204.678 65.3059C204.118 64.9073 203.589 64.467 203.095 63.9888C203.086 63.9783 203.074 63.9699 203.061 63.964C203.048 63.9582 203.033 63.9549 203.019 63.9545C203.005 63.9541 202.99 63.9565 202.977 63.9616C202.964 63.9668 202.951 63.9745 202.941 63.9843C202.93 63.9942 202.922 64.006 202.916 64.0192C202.91 64.0323 202.907 64.0464 202.907 64.0608C202.906 64.0751 202.909 64.0894 202.914 64.1029C202.919 64.1163 202.927 64.1286 202.936 64.139C203.435 64.6268 203.97 65.0759 204.536 65.4827C207.365 67.6218 211.607 70.8571 207.25 78.9542C205.511 82.1204 203.329 85.0224 200.771 87.5728C198.004 90.4722 196.184 92.3904 197.342 96.5096C197.352 96.5289 197.367 96.545 197.386 96.5559C197.404 96.5669 197.426 96.5723 197.448 96.5715Z" fill="white"/>
<path d="M191.393 57.2264C191.782 62.5743 191.641 72.2537 187.566 75.321C192.38 78.1418 196.69 81.7446 200.32 85.9816C202.221 82.9496 203.759 79.9883 203.803 77.2923C198.146 75.1884 198.818 70.8836 200.329 66.9499L191.393 57.2264Z" fill="#FBCA91"/>
<path opacity="0.2" d="M195.035 61.1954L200.338 66.9412C199.965 67.8579 199.67 68.8041 199.454 69.7699C197.271 69.1776 194.504 66.3578 194.557 63.9976C194.541 63.042 194.703 62.0918 195.035 61.1954Z" fill="black"/>
<path d="M210.334 41.1119C215.425 44.0378 211.775 55.9712 209.229 56.8906C204.457 58.6054 204.015 37.4877 210.334 41.1119Z" fill="#0D1C41"/>
<path d="M191.729 49.2885C191.305 56.4132 190.695 60.5679 193.824 64.6341C198.535 70.7511 207.665 68.5677 210.21 61.7082C212.5 55.5204 212.809 44.9129 206.224 41.2622C204.777 40.4446 203.145 40.0116 201.484 40.0044C199.822 39.9972 198.186 40.4161 196.732 41.2211C195.278 42.0261 194.055 43.1903 193.179 44.6026C192.303 46.015 191.804 47.6283 191.729 49.2885Z" fill="#FBCA91"/>
<path d="M186.665 43.0301C185.984 47.167 189.316 58.8264 192.339 58.9413C195.362 59.0562 196.997 52.6829 196.211 46.672C199.065 46.1858 216.486 48.4399 214.277 41.0235C212.235 34.1816 202.044 37.3904 195.088 32.8822C194.558 35.596 197.58 38.0445 196.078 37.6025C189.891 35.7728 187.328 39.671 183.006 37.6998C183.193 38.8005 183.617 39.8473 184.249 40.7677C184.881 41.6881 185.705 42.4601 186.665 43.0301Z" fill="#0D1C41"/>
<path d="M187.601 56.6961C187.977 57.5088 188.509 58.2395 189.167 58.8462C189.825 59.4529 190.597 59.9238 191.437 60.232C193.682 61.0187 194.973 59.0474 194.469 56.8464C194.018 54.8663 192.312 52.0642 189.997 52.2321C187.681 52.4001 186.665 54.6984 187.601 56.6961Z" fill="#FFDBB1"/>
<path d="M207.471 142.378C207.471 142.378 221.073 187.54 222.673 209.436C224.335 232.215 229.876 289.805 229.876 289.805L224.29 291.485C224.29 291.485 205.314 238.447 204.572 216.048C204.085 201.383 177.817 138.781 177.817 138.781L207.471 142.378Z" fill="#FBCA91"/>
<mask id="path-17-inside-1_6861_635" fill="white">
<path d="M230.389 285.103L223.035 288.462C222.905 288.519 222.799 288.621 222.734 288.748C222.67 288.875 222.651 289.021 222.682 289.16L224.043 295.569C224.078 295.724 224.147 295.87 224.246 295.995C224.346 296.121 224.472 296.222 224.615 296.291C224.759 296.361 224.916 296.397 225.076 296.398C225.235 296.398 225.393 296.363 225.537 296.294C228.082 295.083 229.258 294.358 232.493 292.881C234.481 291.997 241.57 288.992 244.319 287.737C247.068 286.482 246.184 283.609 244.946 283.874C239.396 285.067 233.916 285.739 231.635 285.023C231.224 284.897 230.781 284.925 230.389 285.103Z"/>
</mask>
<path d="M230.389 285.103L223.035 288.462C222.905 288.519 222.799 288.621 222.734 288.748C222.67 288.875 222.651 289.021 222.682 289.16L224.043 295.569C224.078 295.724 224.147 295.87 224.246 295.995C224.346 296.121 224.472 296.222 224.615 296.291C224.759 296.361 224.916 296.397 225.076 296.398C225.235 296.398 225.393 296.363 225.537 296.294C228.082 295.083 229.258 294.358 232.493 292.881C234.481 291.997 241.57 288.992 244.319 287.737C247.068 286.482 246.184 283.609 244.946 283.874C239.396 285.067 233.916 285.739 231.635 285.023C231.224 284.897 230.781 284.925 230.389 285.103Z" fill="white" stroke="#4A607A" stroke-width="2" mask="url(#path-17-inside-1_6861_635)"/>
<path d="M234.234 283.52C234.214 283.469 234.19 283.418 234.163 283.37C234.119 283.274 234.05 283.192 233.963 283.133C233.876 283.073 233.774 283.039 233.668 283.034C232.784 282.99 231.335 285.103 231.017 285.527C230.995 285.56 230.984 285.598 230.984 285.637C230.984 285.677 230.995 285.715 231.017 285.748C231.036 285.783 231.067 285.81 231.104 285.826C231.14 285.842 231.181 285.845 231.22 285.836C232.104 285.66 233.757 285.226 234.172 284.36C234.241 284.232 234.282 284.092 234.293 283.947C234.304 283.802 234.284 283.657 234.234 283.52ZM231.688 285.332C232.334 284.449 233.226 283.423 233.651 283.441C233.695 283.441 233.748 283.441 233.801 283.556C233.86 283.65 233.896 283.757 233.905 283.867C233.915 283.978 233.897 284.09 233.854 284.192C233.301 284.83 232.528 285.237 231.688 285.332Z" fill="#4A607A"/>
<path d="M232.166 282.495L232.086 282.344C232.005 282.238 231.89 282.161 231.761 282.126C231.632 282.091 231.494 282.099 231.37 282.15C231.241 282.191 231.121 282.259 231.019 282.349C230.917 282.438 230.835 282.548 230.778 282.671C230.301 283.653 231.008 285.624 231.034 285.704C231.045 285.739 231.065 285.77 231.094 285.794C231.122 285.818 231.157 285.832 231.193 285.836C231.23 285.842 231.267 285.837 231.302 285.823C231.336 285.809 231.366 285.786 231.388 285.757C231.865 285.12 232.475 283.29 232.166 282.495ZM231.282 285.147C231.01 284.408 230.961 283.606 231.14 282.839C231.174 282.767 231.222 282.703 231.281 282.65C231.34 282.597 231.41 282.556 231.485 282.53C231.679 282.468 231.732 282.53 231.75 282.574C232.006 282.928 231.697 284.333 231.282 285.155V285.147Z" fill="#4A607A"/>
<path d="M207.471 142.378C207.471 142.378 213.127 160.057 214.886 168.261C211.298 168.57 194.451 173.715 191.084 175.774C189.025 172.035 179.028 138.922 179.028 138.922L207.471 142.378Z" fill="#A89060"/>
<path opacity="0.2" d="M189.785 151.068C190.828 155.019 192.198 164.76 189.245 171.098C187.929 167.359 186.205 162.02 184.535 156.769C186.249 153.216 189.025 148.177 189.785 151.068Z" fill="black"/>
<path d="M215.001 165.547C215.516 166.74 215.815 168.015 215.885 169.313C213.127 169.843 195.088 175.438 191.773 177.197C190.164 176.013 189.926 173.458 189.837 173.494C189.749 173.529 204.819 166.952 215.001 165.547Z" fill="#4A607A"/>
<path opacity="0.2" d="M215.001 165.547C215.516 166.74 215.815 168.015 215.885 169.313C213.127 169.843 195.088 175.438 191.773 177.197C190.164 176.013 189.926 173.458 189.837 173.494C189.749 173.529 204.819 166.952 215.001 165.547Z" fill="white"/>
<path d="M196.961 141.123C196.961 141.123 175.386 199.129 164.621 217.975C153.202 238.04 105.579 201.029 105.579 201.029L109.857 196.547C109.857 196.547 137.796 208.675 148.835 207.791C159.689 187.46 169.27 137.746 169.27 137.746L196.961 141.123Z" fill="#FBCA91"/>
<path d="M197.66 141.203C197.66 141.203 187.522 167.341 185.02 175.324C181.741 173.821 164.135 170.02 160.193 170.135C160.246 165.856 169.27 137.755 169.27 137.755L197.66 141.203Z" fill="#A89060"/>
<path d="M177.393 141.247C177.416 141.245 177.439 141.237 177.458 141.222C177.476 141.208 177.491 141.189 177.499 141.167C179.877 133.477 185.136 127.634 189.776 122.48C195.406 116.222 200.267 110.821 199.498 103.581C198.941 98.1184 196.847 94.9008 194.982 92.0898C192.33 88.0412 190.244 84.8413 194.328 77.0006C200.462 65.2439 193.833 59.5247 191.34 57.3767C191.075 57.1569 190.821 56.9238 190.58 56.6784C190.57 56.6685 190.559 56.6606 190.546 56.6553C190.533 56.6499 190.519 56.6472 190.505 56.6472C190.491 56.6472 190.477 56.6499 190.464 56.6553C190.451 56.6606 190.44 56.6685 190.43 56.6784C190.409 56.6998 190.398 56.7283 190.398 56.7579C190.398 56.7876 190.409 56.8161 190.43 56.8375C190.589 57.0143 190.863 57.2529 191.216 57.5623C193.674 59.675 200.196 65.3146 194.151 76.921C190.014 84.8767 192.136 88.1208 194.814 92.2312C196.661 95.0511 198.747 98.2421 199.304 103.643C200.037 110.786 195.203 116.16 189.581 122.374C184.932 127.545 179.656 133.406 177.26 141.15C177.256 141.163 177.255 141.177 177.256 141.191C177.258 141.205 177.262 141.218 177.268 141.231C177.275 141.243 177.284 141.254 177.294 141.263C177.305 141.271 177.318 141.278 177.331 141.282L177.393 141.247Z" fill="white"/>
<path d="M189.157 56.7314C189.202 56.8844 189.28 57.0255 189.386 57.1446C189.493 57.2637 189.624 57.3578 189.77 57.4201C189.917 57.4824 190.076 57.5114 190.235 57.5049C190.395 57.4985 190.551 57.4568 190.692 57.3828C190.833 57.3088 190.956 57.2044 191.052 57.0771C191.148 56.9498 191.215 56.8028 191.247 56.6467C191.28 56.4905 191.277 56.3291 191.24 56.1741C191.202 56.0191 191.131 55.8743 191.031 55.7502C190.911 55.457 190.681 55.2224 190.39 55.0968C190.099 54.9713 189.771 54.9646 189.475 55.0784C189.217 55.2574 189.038 55.5308 188.979 55.8399C188.919 56.149 188.983 56.4691 189.157 56.7314Z" fill="white"/>
<path d="M179.59 141.037L172.551 139.779C172.404 139.752 172.251 139.786 172.128 139.872C172.005 139.957 171.921 140.089 171.895 140.236L171.315 143.482L179.468 144.939L180.047 141.693C180.061 141.62 180.059 141.545 180.043 141.472C180.027 141.4 179.997 141.331 179.955 141.27C179.912 141.209 179.858 141.157 179.796 141.117C179.733 141.077 179.663 141.05 179.59 141.037Z" fill="white"/>
<path d="M186.117 172.813C185.978 174.103 185.61 175.357 185.03 176.517C182.378 175.633 163.905 171.593 160.158 171.487C159.336 169.666 160.388 167.324 160.299 167.315C160.211 167.306 176.606 169.039 186.117 172.813Z" fill="#4A607A"/>
<path opacity="0.2" d="M186.117 172.813C185.978 174.103 185.61 175.357 185.03 176.517C182.378 175.633 163.905 171.593 160.158 171.487C159.336 169.666 160.388 167.324 160.299 167.315C160.211 167.306 176.606 169.039 186.117 172.813Z" fill="white"/>
<mask id="path-31-inside-2_6861_635" fill="white">
<path d="M105.12 202.62L111.307 197.414C111.415 197.319 111.488 197.191 111.515 197.05C111.542 196.91 111.522 196.764 111.457 196.636L108.425 190.828C108.349 190.688 108.243 190.566 108.113 190.472C107.984 190.379 107.835 190.316 107.678 190.288C107.521 190.26 107.359 190.267 107.206 190.31C107.052 190.354 106.91 190.431 106.79 190.536C104.669 192.384 103.723 193.4 101.01 195.69C99.3303 197.095 93.3112 201.878 91.0044 203.822C88.6975 205.767 90.315 208.304 91.4375 207.712C96.4578 205.06 101.558 202.956 103.944 203.036C104.373 203.045 104.791 202.897 105.12 202.62Z"/>
</mask>
<path d="M105.12 202.62L111.307 197.414C111.415 197.319 111.488 197.191 111.515 197.05C111.542 196.91 111.522 196.764 111.457 196.636L108.425 190.828C108.349 190.688 108.243 190.566 108.113 190.472C107.984 190.379 107.835 190.316 107.678 190.288C107.521 190.26 107.359 190.267 107.206 190.31C107.052 190.354 106.91 190.431 106.79 190.536C104.669 192.384 103.723 193.4 101.01 195.69C99.3303 197.095 93.3112 201.878 91.0044 203.822C88.6975 205.767 90.315 208.304 91.4375 207.712C96.4578 205.06 101.558 202.956 103.944 203.036C104.373 203.045 104.791 202.897 105.12 202.62Z" fill="white" stroke="#4A607A" stroke-width="2" mask="url(#path-31-inside-2_6861_635)"/>
<path d="M101.867 205.14L101.973 205.263C102.042 205.343 102.13 205.403 102.23 205.437C102.329 205.471 102.436 205.478 102.539 205.458C103.423 205.254 104.227 202.806 104.386 202.355C104.399 202.316 104.4 202.274 104.389 202.235C104.378 202.196 104.356 202.16 104.324 202.134C104.291 202.113 104.253 202.101 104.214 202.101C104.175 202.101 104.136 202.113 104.103 202.134C103.22 202.558 101.823 203.407 101.655 204.344C101.633 204.484 101.64 204.627 101.677 204.764C101.714 204.901 101.778 205.029 101.867 205.14ZM103.829 202.709C103.449 203.752 102.857 204.963 102.451 205.06C102.416 205.066 102.381 205.063 102.348 205.05C102.315 205.038 102.287 205.017 102.265 204.989C102.184 204.914 102.122 204.819 102.085 204.715C102.048 204.61 102.037 204.498 102.053 204.388C102.124 203.937 102.751 203.372 103.812 202.744L103.829 202.709Z" fill="#4A607A"/>
<path d="M104.121 205.599C104.15 205.648 104.189 205.691 104.236 205.723C104.341 205.809 104.472 205.856 104.607 205.856C104.743 205.856 104.874 205.809 104.979 205.723C105.091 205.65 105.187 205.553 105.26 205.441C105.333 205.328 105.382 205.201 105.403 205.069C105.606 203.99 104.395 202.284 104.342 202.205C104.32 202.175 104.29 202.152 104.256 202.138C104.222 202.124 104.184 202.12 104.148 202.125C104.113 202.131 104.08 202.145 104.053 202.167C104.025 202.189 104.003 202.217 103.989 202.249C103.697 203 103.635 204.927 104.121 205.599ZM104.254 202.806C104.713 203.444 104.974 204.204 105.005 204.989C104.993 205.068 104.965 205.143 104.922 205.21C104.879 205.277 104.823 205.334 104.758 205.378C104.59 205.493 104.519 205.44 104.492 205.378C104.148 205.14 104.077 203.708 104.254 202.806Z" fill="#4A607A"/>
<path d="M202.221 52.5679C202.15 53.1425 202.397 53.6464 202.769 53.6906C203.14 53.7348 203.511 53.3105 203.582 52.7359C203.652 52.1613 203.405 51.6486 203.025 51.6044C202.645 51.5602 202.291 51.9934 202.221 52.5679Z" fill="#806838"/>
<path d="M208.726 53.3547C208.655 53.9382 208.911 54.442 209.283 54.4862C209.654 54.5304 210.025 54.0973 210.096 53.5227C210.166 52.9481 209.91 52.4443 209.539 52.4001C209.168 52.3559 208.814 52.7802 208.726 53.3547Z" fill="#806838"/>
<path d="M206.622 53.3901C207.095 55.2483 207.821 57.0328 208.779 58.6938C208.35 58.9258 207.875 59.0617 207.388 59.0922C206.902 59.1227 206.414 59.0471 205.959 58.8706L206.622 53.3901Z" fill="#BC8F63"/>
<path d="M204.112 60.2231C204.153 60.2233 204.194 60.2081 204.225 60.1803C204.256 60.1526 204.275 60.1143 204.28 60.0728C204.282 60.0508 204.28 60.0284 204.274 60.0071C204.268 59.9858 204.257 59.9659 204.243 59.9487C204.229 59.9314 204.212 59.9171 204.193 59.9065C204.173 59.896 204.152 59.8894 204.129 59.8872C203.405 59.8215 202.707 59.5844 202.092 59.1955C201.477 58.8067 200.964 58.2772 200.594 57.6508C200.585 57.6301 200.571 57.6116 200.554 57.5963C200.537 57.5809 200.518 57.5692 200.496 57.5618C200.475 57.5544 200.452 57.5514 200.429 57.553C200.407 57.5546 200.384 57.5608 200.364 57.5712C200.326 57.5936 200.296 57.6291 200.282 57.6713C200.267 57.7135 200.268 57.7596 200.285 57.8011C200.673 58.4782 201.219 59.0517 201.876 59.4733C202.533 59.8949 203.281 60.1521 204.059 60.2231H204.112Z" fill="#806838"/>
<path d="M200.55 50.2343C200.596 50.2341 200.642 50.2247 200.684 50.2064C200.727 50.1882 200.765 50.1616 200.797 50.1282C201.085 49.8088 201.443 49.5621 201.844 49.4085C202.245 49.2548 202.677 49.1985 203.104 49.2443C203.187 49.2481 203.269 49.2217 203.335 49.1699C203.4 49.118 203.444 49.0443 203.459 48.9624C203.474 48.8804 203.459 48.7958 203.417 48.7241C203.374 48.6524 203.307 48.5986 203.228 48.5725C202.691 48.5046 202.146 48.5654 201.637 48.7498C201.129 48.9343 200.671 49.2371 200.302 49.6332C200.24 49.6989 200.206 49.7859 200.206 49.8763C200.206 49.9667 200.24 50.0537 200.302 50.1194C200.368 50.187 200.456 50.228 200.55 50.2343Z" fill="#806838"/>
<path d="M211.89 51.4719H212.005C212.09 51.4418 212.16 51.3796 212.199 51.2986C212.239 51.2176 212.245 51.1244 212.217 51.0388C212.052 50.5229 211.767 50.054 211.384 49.6711C211.001 49.2882 210.532 49.0024 210.016 48.8377C209.973 48.8258 209.927 48.8228 209.882 48.8289C209.838 48.835 209.795 48.8501 209.756 48.8732C209.717 48.8963 209.683 48.927 209.657 48.9634C209.63 48.9998 209.611 49.0413 209.601 49.0852C209.579 49.1731 209.593 49.2659 209.639 49.3436C209.686 49.4213 209.761 49.4777 209.848 49.5007C210.265 49.6273 210.645 49.8548 210.953 50.1632C211.262 50.4716 211.489 50.8512 211.616 51.2686C211.639 51.3238 211.677 51.3719 211.725 51.4076C211.773 51.4434 211.83 51.4656 211.89 51.4719Z" fill="#806838"/>
<path d="M168.687 80.3773C166.53 84.6203 164.639 88.8191 162.871 93.2036C161.987 95.3958 161.157 97.6234 160.414 99.8952C159.609 102.246 158.945 104.643 158.425 107.073C158.302 107.718 158.187 108.39 158.09 109.088C157.987 109.871 157.928 110.659 157.913 111.449C157.906 112.812 158.24 114.155 158.885 115.356C159.464 116.417 160.266 117.34 161.236 118.061C162.619 119.07 164.186 119.797 165.85 120.2C167.173 120.532 168.521 120.753 169.88 120.863C174.769 121.182 179.677 120.795 184.455 119.714L183.987 114.534L180.69 114.251C179.585 114.145 178.489 114.012 177.402 113.888C175.299 113.642 173.213 113.273 171.153 112.783C170.247 112.559 169.361 112.263 168.501 111.899C167.943 111.722 167.432 111.419 167.008 111.015C166.946 110.918 167.008 110.927 167.167 111.104C167.284 111.283 167.362 111.485 167.397 111.696C167.397 111.74 167.397 111.696 167.397 111.634V111.51V111.254L167.512 110.644C167.618 110.211 167.724 109.76 167.856 109.292C168.395 107.409 169.111 105.367 169.916 103.351C170.72 101.336 171.568 99.2852 172.47 97.2521C174.238 93.1859 176.156 89.0578 178.029 85.0711L168.687 80.3773Z" fill="#FBCA91"/>
<path d="M181.414 115.798L184.393 111.961C184.765 111.487 185.229 111.093 185.759 110.805C186.288 110.517 186.871 110.34 187.471 110.286C188.071 110.231 188.676 110.3 189.249 110.487C189.821 110.675 190.35 110.978 190.801 111.378C191.373 111.897 191.799 112.557 192.036 113.292C192.274 114.027 192.315 114.811 192.155 115.567C191.994 116.323 191.639 117.023 191.124 117.599C190.609 118.174 189.952 118.605 189.219 118.847C187.612 119.393 185.949 119.752 184.26 119.917L181.414 115.798Z" fill="#FFDBB1"/>
<path d="M174.582 75.383C163.587 76.9034 160.149 95.7141 160.149 95.7141L172.381 102.096C176.274 98.0849 179.593 93.5544 182.245 88.6336C186.585 80.4393 181.892 74.3665 174.582 75.383Z" fill="#0D1C41"/>
</g>
<defs>
<filter id="filter0_dd_6861_635" x="-7" y="0" width="405" height="322" filterUnits="userSpaceOnUse" color-interpolation-filters="sRGB">
<feFlood flood-opacity="0" result="BackgroundImageFix"/>
<feColorMatrix in="SourceAlpha" type="matrix" values="0 0 0 0 0 0 0 0 0 0 0 0 0 0 0 0 0 0 127 0" result="hardAlpha"/>
<feOffset dx="-2" dy="-2"/>
<feGaussianBlur stdDeviation="2.5"/>
<feColorMatrix type="matrix" values="0 0 0 0 0.0791667 0 0 0 0 0.114 0 0 0 0 0.2375 0 0 0 0.15 0"/>
<feBlend mode="normal" in2="BackgroundImageFix" result="effect1_dropShadow_6861_635"/>
<feColorMatrix in="SourceAlpha" type="matrix" values="0 0 0 0 0 0 0 0 0 0 0 0 0 0 0 0 0 0 127 0" result="hardAlpha"/>
<feOffset dx="2" dy="2"/>
<feGaussianBlur stdDeviation="2.5"/>
<feColorMatrix type="matrix" values="0 0 0 0 0.0784314 0 0 0 0 0.113725 0 0 0 0 0.239216 0 0 0 0.15 0"/>
<feBlend mode="normal" in2="effect1_dropShadow_6861_635" result="effect2_dropShadow_6861_635"/>
<feBlend mode="normal" in="SourceGraphic" in2="effect2_dropShadow_6861_635" result="shape"/>
</filter>
</defs>
</svg>
