<svg width="147" height="48" viewBox="0 0 147 48" fill="none" xmlns="http://www.w3.org/2000/svg">
<g clip-path="url(#clip0_32_892)">
<path d="M141.768 29.3349L145.826 32.0403C144.509 33.9803 141.359 37.3087 135.912 37.3087C129.149 37.3087 124.112 32.0759 124.112 25.4192C124.112 18.3353 129.202 13.5297 135.343 13.5297C141.519 13.5297 144.545 18.4421 145.524 21.0941L146.058 22.4468L130.146 29.0323C131.356 31.4173 133.243 32.6276 135.912 32.6276C138.582 32.6276 140.433 31.3105 141.768 29.3349ZM129.291 25.0454L139.917 20.6314C139.33 19.1541 137.586 18.104 135.503 18.104C132.851 18.104 129.167 20.4534 129.291 25.0454Z" fill="#999999"/>
<path d="M116.441 1.40887H121.567V36.2229H116.441V1.40887Z" fill="#999999"/>
<path d="M108.36 14.4553H113.308V35.6C113.308 44.3747 108.129 47.9878 102.006 47.9878C96.2394 47.9878 92.7687 44.1077 91.4694 40.9574L96.008 39.0707C96.8268 41.0108 98.8024 43.3068 102.006 43.3068C105.94 43.3068 108.36 40.8684 108.36 36.3119V34.6033H108.182C107.008 36.0272 104.765 37.3087 101.917 37.3087C95.9724 37.3087 90.526 32.1293 90.526 25.4548C90.526 18.7447 95.9724 13.5119 101.917 13.5119C104.747 13.5119 107.008 14.7756 108.182 16.1639H108.36V14.4553ZM108.716 25.4548C108.716 21.2543 105.922 18.193 102.362 18.193C98.7668 18.193 95.741 21.2543 95.741 25.4548C95.741 29.6019 98.7668 32.6098 102.362 32.6098C105.922 32.6276 108.716 29.6019 108.716 25.4548Z" fill="#999999"/>
<path d="M62.3865 25.3658C62.3865 32.2183 57.0469 37.2553 50.497 37.2553C43.9471 37.2553 38.6075 32.2005 38.6075 25.3658C38.6075 18.4777 43.9471 13.4585 50.497 13.4585C57.0469 13.4585 62.3865 18.4777 62.3865 25.3658ZM57.1893 25.3658C57.1893 21.0941 54.0923 18.1574 50.497 18.1574C46.9017 18.1574 43.8047 21.0941 43.8047 25.3658C43.8047 29.6019 46.9017 32.5742 50.497 32.5742C54.0923 32.5742 57.1893 29.6019 57.1893 25.3658Z" fill="#999999"/>
<path d="M88.3546 25.4192C88.3546 32.2717 83.015 37.3087 76.4651 37.3087C69.9153 37.3087 64.5757 32.2717 64.5757 25.4192C64.5757 18.5311 69.9153 13.5297 76.4651 13.5297C83.015 13.5297 88.3546 18.5133 88.3546 25.4192ZM83.1396 25.4192C83.1396 21.1475 80.0427 18.2108 76.4474 18.2108C72.852 18.2108 69.7551 21.1475 69.7551 25.4192C69.7551 29.6553 72.852 32.6276 76.4474 32.6276C80.0605 32.6276 83.1396 29.6375 83.1396 25.4192Z" fill="#999999"/>
<path d="M19.0647 32.0937C11.6071 32.0937 5.76912 26.0777 5.76912 18.6201C5.76912 11.1625 11.6071 5.14658 19.0647 5.14658C23.0872 5.14658 26.0239 6.73065 28.1954 8.75969L31.7729 5.18217C28.7471 2.281 24.7068 0.0739746 19.0647 0.0739746C8.84828 0.0739746 0.251556 8.40372 0.251556 18.6201C0.251556 28.8365 8.84828 37.1663 19.0647 37.1663C24.5822 37.1663 28.7471 35.3508 32.0043 31.9691C35.3504 28.6229 36.3827 23.9241 36.3827 20.1152C36.3827 18.9227 36.2403 17.6946 36.0801 16.7869H19.0647V21.7349H31.1855C30.8296 24.8318 29.8506 26.9499 28.4089 28.3916C26.6647 30.1536 23.9059 32.0937 19.0647 32.0937Z" fill="#999999"/>
</g>
<defs>
<clipPath id="clip0_32_892">
<rect width="146.286" height="48" fill="white" transform="translate(0.0389404)"/>
</clipPath>
</defs>
</svg>
