<svg width="43" height="41" viewBox="0 0 43 41" fill="none" xmlns="http://www.w3.org/2000/svg">
<path d="M5.2998 30.375V20.25C5.2998 16.222 6.97492 12.359 9.95663 9.51082C12.9384 6.66261 16.9824 5.0625 21.1992 5.0625C25.416 5.0625 29.4601 6.66261 32.4418 9.51082C35.4235 12.359 37.0986 16.222 37.0986 20.25V30.375" stroke="white" stroke-width="3" stroke-linecap="round" stroke-linejoin="round"/>
<path d="M37.0986 32.0625C37.0986 32.9576 36.7264 33.816 36.0638 34.449C35.4012 35.0819 34.5025 35.4375 33.5654 35.4375H31.7988C30.8618 35.4375 29.9631 35.0819 29.3005 34.449C28.6379 33.816 28.2656 32.9576 28.2656 32.0625V27C28.2656 26.1049 28.6379 25.2465 29.3005 24.6135C29.9631 23.9806 30.8618 23.625 31.7988 23.625H37.0986V32.0625ZM5.2998 32.0625C5.2998 32.9576 5.67205 33.816 6.33466 34.449C6.99726 35.0819 7.89594 35.4375 8.83301 35.4375H10.5996C11.5367 35.4375 12.4354 35.0819 13.098 34.449C13.7606 33.816 14.1328 32.9576 14.1328 32.0625V27C14.1328 26.1049 13.7606 25.2465 13.098 24.6135C12.4354 23.9806 11.5367 23.625 10.5996 23.625H5.2998V32.0625Z" stroke="white" stroke-width="3" stroke-linecap="round" stroke-linejoin="round"/>
</svg>
