<svg width="178" height="48" viewBox="0 0 178 48" fill="none" xmlns="http://www.w3.org/2000/svg">
<g clip-path="url(#clip0_32_907)">
<path d="M24.6391 44.9061C21.9698 45.3752 19.2536 45.5159 16.4438 45.8905L7.87344 20.7657V46.9689C5.20415 47.25 2.76898 47.625 0.240051 48V0H7.35861L17.0993 27.2348V0H24.6391V44.9061ZM39.3911 17.5781C42.2948 17.5781 46.7437 17.4375 49.413 17.4375V24.9373C46.0879 24.9373 42.2011 24.9373 39.3911 25.078V36.2344C43.7934 35.9533 48.1955 35.5779 52.6443 35.4373V42.6556L31.8979 44.2966V0H52.6443V7.50001H39.3911V17.5781ZM80.5089 7.50018H72.735V42.0001C70.206 42.0001 67.6771 42.0001 65.2423 42.0936V7.50018H57.4684V0H80.5092L80.5089 7.50018ZM92.6849 17.0627H102.941V24.5625H92.6849V41.5783H85.3319V0H106.266V7.50001H92.6849V17.0627ZM118.442 35.0156C122.704 35.1091 127.012 35.4378 131.18 35.6718V43.0781C124.484 42.6559 117.787 42.2346 110.949 42.0936V0H118.442V35.0156ZM137.503 43.5938C139.891 43.7346 142.42 43.8753 144.855 44.1561V0H137.503V43.5938ZM177.684 0L168.177 22.8282L177.684 48C174.874 47.625 172.064 47.1093 169.254 46.6405L163.869 32.7658L158.39 45.5159C155.673 45.0467 153.051 44.9061 150.335 44.5311L159.982 22.5467L151.271 0H159.326L164.243 12.6094L169.489 0H177.684V0Z" fill="#999999"/>
</g>
<defs>
<clipPath id="clip0_32_907">
<rect width="177.444" height="48" fill="white" transform="translate(0.240051)"/>
</clipPath>
</defs>
</svg>
