<svg width="33" height="32" viewBox="0 0 33 32" fill="none" xmlns="http://www.w3.org/2000/svg">
<path fill-rule="evenodd" clip-rule="evenodd" d="M25.4634 15.9881C25.4634 16.5651 25.4047 17.1414 25.2893 17.7032C25.1768 18.2516 25.0101 18.79 24.7918 19.3047C24.5784 19.8103 24.3138 20.2975 24.0047 20.7518C23.7001 21.2033 23.3492 21.6269 22.9638 22.013C22.5775 22.3975 22.1525 22.7474 21.7012 23.0532C21.2454 23.3603 20.7574 23.6245 20.2516 23.8388C19.7361 24.056 19.1965 24.2224 18.6485 24.3348C18.0861 24.4505 17.5077 24.5095 16.9297 24.5095C16.3514 24.5095 15.773 24.4505 15.2113 24.3348C14.6626 24.2224 14.1229 24.056 13.6079 23.8388C13.1021 23.6245 12.6137 23.3603 12.1578 23.0532C11.7066 22.7474 11.2815 22.3975 10.8961 22.013C10.5103 21.6269 10.1594 21.2033 9.85437 20.7518C9.54686 20.2975 9.28182 19.8102 9.06766 19.3047C8.84929 18.79 8.68222 18.2516 8.56929 17.7032C8.45513 17.1414 8.39678 16.5651 8.39678 15.9881C8.39678 15.4105 8.4551 14.833 8.56933 14.2725C8.68225 13.7241 8.84932 13.1848 9.06769 12.671C9.28186 12.165 9.54689 11.6774 9.85441 11.223C10.1594 10.7711 10.5103 10.3484 10.8961 9.96183C11.2816 9.57734 11.7066 9.22828 12.1579 8.92287C12.6137 8.61453 13.1021 8.35035 13.6079 8.13563C14.123 7.91797 14.6626 7.75115 15.2114 7.63965C15.773 7.52482 16.3514 7.46655 16.9298 7.46655C17.5077 7.46655 18.0861 7.52482 18.6486 7.63965C19.1965 7.75118 19.7361 7.91801 20.2516 8.13563C20.7574 8.35032 21.2454 8.61453 21.7012 8.92287C22.1525 9.22828 22.5776 9.57734 22.9638 9.96183C23.3492 10.3484 23.7001 10.7711 24.0047 11.223C24.3138 11.6774 24.5784 12.1651 24.7918 12.671C25.0101 13.1848 25.1768 13.7241 25.2893 14.2725C25.4047 14.833 25.4634 15.4105 25.4634 15.9881ZM13.8204 9.40593C11.7882 10.3642 10.2714 12.2341 9.79847 14.4876C9.99059 14.4893 13.0274 14.5276 16.5263 13.5993C15.265 11.3615 13.9175 9.53537 13.8204 9.40593ZM17.1301 14.7198C13.3778 15.8416 9.77722 15.7609 9.64806 15.7559C9.64596 15.8341 9.64222 15.9098 9.64222 15.988C9.64222 17.8575 10.3485 19.5618 11.5094 20.8505C11.5069 20.8467 13.5012 17.3137 17.4339 16.0438C17.5289 16.0122 17.6256 15.9839 17.7214 15.9564C17.5385 15.5429 17.3389 15.1284 17.1301 14.7198ZM21.7425 10.5265C20.4595 9.39677 18.7748 8.71152 16.9297 8.71152C16.3376 8.71152 15.763 8.78309 15.2125 8.9154C15.3217 9.06188 16.6905 10.8752 17.9368 13.1603C20.6866 12.1309 21.7245 10.5531 21.7425 10.5265ZM18.2181 17.1622C18.2019 17.1676 18.1857 17.1723 18.1698 17.1781C13.8701 18.6748 12.4659 21.6913 12.4507 21.7242C13.6879 22.685 15.2397 23.2646 16.9298 23.2646C17.9389 23.2646 18.9002 23.0594 19.7749 22.6879C19.6669 22.0521 19.2436 19.8235 18.2181 17.1622ZM21.002 22.023C22.6383 20.9204 23.8005 19.1695 24.1246 17.1414C23.9746 17.0931 21.9358 16.4486 19.5836 16.8252C20.5394 19.4482 20.9278 21.5844 21.002 22.023ZM18.4978 14.2446C18.6669 14.5917 18.8307 14.9449 18.9819 15.2998C19.0357 15.4272 19.0882 15.552 19.1394 15.6768C21.6429 15.3622 24.1093 15.8915 24.2147 15.9131C24.1981 14.188 23.5801 12.6048 22.5576 11.3653C22.5438 11.3848 21.375 13.0712 18.4978 14.2446Z" fill="white"/>
</svg>
