<svg width="33" height="32" viewBox="0 0 33 32" fill="none" xmlns="http://www.w3.org/2000/svg">
<path fill-rule="evenodd" clip-rule="evenodd" d="M23.5979 10.4995C24.3322 10.701 24.9105 11.2948 25.1068 12.0488C25.4635 13.4153 25.4635 16.2666 25.4635 16.2666C25.4635 16.2666 25.4635 19.1178 25.1068 20.4845C24.9105 21.2385 24.3322 21.8322 23.5979 22.0338C22.267 22.4 16.9301 22.4 16.9301 22.4C16.9301 22.4 11.5932 22.4 10.2623 22.0338C9.52794 21.8322 8.94961 21.2385 8.75335 20.4845C8.39679 19.1178 8.39679 16.2666 8.39679 16.2666C8.39679 16.2666 8.39679 13.4153 8.75335 12.0488C8.94961 11.2948 9.52794 10.701 10.2623 10.4995C11.5932 10.1333 16.9301 10.1333 16.9301 10.1333C16.9301 10.1333 22.267 10.1333 23.5979 10.4995ZM15.3301 13.8666V19.1999L19.5968 16.5333L15.3301 13.8666Z" fill="white"/>
</svg>
