<svg width="33" height="32" viewBox="0 0 33 32" fill="none" xmlns="http://www.w3.org/2000/svg">
<path fill-rule="evenodd" clip-rule="evenodd" d="M16.4509 13.0051L16.4845 13.5587L15.9249 13.4909C13.888 13.2311 12.1085 12.3498 10.5977 10.8696L9.85902 10.1352L9.66876 10.6776C9.26586 11.8865 9.52327 13.1633 10.3626 14.022C10.8103 14.4965 10.7096 14.5643 9.93736 14.2819C9.66876 14.1915 9.43374 14.1237 9.41136 14.1576C9.33301 14.2367 9.60161 15.2648 9.81426 15.6716C10.1052 16.2365 10.6984 16.7902 11.3475 17.1178L11.8959 17.3777L11.2468 17.389C10.6201 17.389 10.5977 17.4003 10.6648 17.6376C10.8887 18.372 11.7728 19.1516 12.7577 19.4906L13.4515 19.7278L12.8472 20.0894C11.9519 20.6091 10.8998 20.9029 9.84783 20.9255C9.34421 20.9368 8.93011 20.982 8.93011 21.0159C8.93011 21.1289 10.2955 21.7616 11.0901 22.0102C13.4739 22.7446 16.3054 22.4282 18.4318 21.1741C19.9427 20.2815 21.4536 18.5076 22.1587 16.7902C22.5392 15.875 22.9197 14.2028 22.9197 13.4006C22.9197 12.8808 22.9533 12.813 23.58 12.1916C23.9493 11.83 24.2963 11.4346 24.3634 11.3216C24.4753 11.1069 24.4642 11.1069 23.8934 11.299C22.9421 11.638 22.8078 11.5928 23.2778 11.0843C23.6248 10.7228 24.0389 10.0674 24.0389 9.87536C24.0389 9.84146 23.871 9.89796 23.6807 9.99964C23.4793 10.1126 23.0316 10.2821 22.6959 10.3838L22.0915 10.5759L21.5431 10.203C21.241 9.99964 20.8157 9.77367 20.5918 9.70588C20.0211 9.5477 19.1481 9.57029 18.6333 9.75107C17.2343 10.2595 16.3502 11.5702 16.4509 13.0051Z" fill="white"/>
</svg>
