<svg width="33" height="32" viewBox="0 0 33 32" fill="none" xmlns="http://www.w3.org/2000/svg">
<path fill-rule="evenodd" clip-rule="evenodd" d="M16.9309 7.46655C14.6134 7.46655 14.3225 7.47669 13.4123 7.51811C12.5038 7.55971 11.8838 7.70353 11.3412 7.91456C10.7799 8.13252 10.3038 8.42407 9.82951 8.89857C9.35484 9.37288 9.06328 9.84898 8.84461 10.41C8.63305 10.9528 8.48905 11.5731 8.44816 12.4812C8.40745 13.3914 8.39678 13.6824 8.39678 16C8.39678 18.3175 8.40709 18.6075 8.44834 19.5177C8.49012 20.4262 8.63394 21.0462 8.84479 21.5888C9.06292 22.1501 9.35448 22.6262 9.82897 23.1005C10.3031 23.5752 10.7792 23.8674 11.3401 24.0854C11.883 24.2964 12.5033 24.4402 13.4116 24.4818C14.3218 24.5233 14.6125 24.5334 16.9298 24.5334C19.2476 24.5334 19.5375 24.5233 20.4478 24.4818C21.3562 24.4402 21.977 24.2964 22.52 24.0854C23.081 23.8674 23.5564 23.5752 24.0305 23.1005C24.5052 22.6262 24.7968 22.1501 25.0154 21.589C25.2252 21.0462 25.3692 20.426 25.4119 19.5179C25.4528 18.6076 25.4634 18.3175 25.4634 16C25.4634 13.6824 25.4528 13.3916 25.4119 12.4814C25.3692 11.5729 25.2252 10.9528 25.0154 10.4102C24.7968 9.84898 24.5052 9.37288 24.0305 8.89857C23.5559 8.4239 23.0812 8.13234 22.5194 7.91456C21.9754 7.70353 21.355 7.55971 20.4465 7.51811C19.5363 7.47669 19.2465 7.46655 16.9282 7.46655H16.9309ZM16.1654 9.00432C16.3926 9.00397 16.6461 9.00432 16.9309 9.00432C19.2093 9.00432 19.4793 9.0125 20.3791 9.05339C21.2111 9.09143 21.6627 9.23046 21.9635 9.34726C22.3617 9.50193 22.6456 9.68682 22.9441 9.98549C23.2428 10.2842 23.4277 10.5686 23.5827 10.9668C23.6995 11.2673 23.8387 11.7188 23.8765 12.5508C23.9174 13.4504 23.9263 13.7206 23.9263 15.998C23.9263 18.2754 23.9174 18.5456 23.8765 19.4451C23.8385 20.2772 23.6995 20.7287 23.5827 21.0292C23.428 21.4274 23.2428 21.7109 22.9441 22.0094C22.6454 22.3081 22.3619 22.493 21.9635 22.6477C21.663 22.765 21.2111 22.9037 20.3791 22.9417C19.4795 22.9826 19.2093 22.9915 16.9309 22.9915C14.6523 22.9915 14.3822 22.9826 13.4827 22.9417C12.6507 22.9033 12.1991 22.7643 11.8981 22.6475C11.4999 22.4928 11.2154 22.3079 10.9168 22.0093C10.6181 21.7106 10.4332 21.4269 10.2782 21.0284C10.1614 20.728 10.0222 20.2764 9.98432 19.4444C9.94343 18.5449 9.93525 18.2746 9.93525 15.9959C9.93525 13.7171 9.94343 13.4483 9.98432 12.5487C10.0224 11.7167 10.1614 11.2651 10.2782 10.9643C10.4329 10.5661 10.6181 10.2817 10.9168 9.983C11.2154 9.68433 11.4999 9.49944 11.8981 9.34441C12.1989 9.22708 12.6507 9.08841 13.4827 9.05019C14.2699 9.01463 14.5749 9.00397 16.1654 9.00219V9.00432ZM21.486 10.4212C20.9206 10.4212 20.4619 10.8794 20.4619 11.4449C20.4619 12.0102 20.9206 12.4689 21.486 12.4689C22.0513 12.4689 22.51 12.0102 22.51 11.4449C22.51 10.8795 22.0513 10.4212 21.486 10.4212ZM16.9309 11.6177C14.5108 11.6177 12.5487 13.5798 12.5487 16C12.5487 18.4201 14.5108 20.3813 16.9309 20.3813C19.351 20.3813 21.3125 18.4201 21.3125 16C21.3125 13.5798 19.351 11.6177 16.9309 11.6177ZM16.9309 13.1555C18.5018 13.1555 19.7754 14.4289 19.7754 16C19.7754 17.5708 18.5018 18.8444 16.9309 18.8444C15.3599 18.8444 14.0864 17.5708 14.0864 16C14.0864 14.4289 15.3599 13.1555 16.9309 13.1555Z" fill="white"/>
</svg>
