<svg width="76" height="74" viewBox="0 0 76 74" fill="none" xmlns="http://www.w3.org/2000/svg">
<path d="M41.5625 64.75V70.5312C41.5625 70.8379 41.6876 71.132 41.9103 71.3488C42.133 71.5657 42.4351 71.6875 42.75 71.6875H68.875C69.1899 71.6875 69.492 71.5657 69.7147 71.3488C69.9374 71.132 70.0625 70.8379 70.0625 70.5312V64.75C70.0625 64.4433 69.9374 64.1492 69.7147 63.9324C69.492 63.7156 69.1899 63.5938 68.875 63.5938V49.7188C68.875 49.5801 68.8494 49.4426 68.7994 49.3128L66.3927 43.0638C65.965 41.964 65.2045 41.0166 64.2118 40.3468C63.2191 39.6769 62.041 39.3163 60.8333 39.3125H49.875V31.5925C51.7307 32.4506 53.847 32.6091 55.8156 32.0375C57.0564 32.3978 58.3664 32.4708 59.6413 32.2509C60.9162 32.0309 62.1207 31.524 63.1588 30.7706C64.1969 30.0172 65.0399 29.0381 65.6206 27.9113C66.2013 26.7845 66.5036 25.5413 66.5035 24.2806C66.5034 23.0199 66.2008 21.7767 65.62 20.65C65.0391 19.5233 64.1959 18.5444 63.1577 17.7911C62.1194 17.0379 60.9149 16.5312 59.6399 16.3114C58.365 16.0917 57.055 16.165 55.8143 16.5254C53.8462 15.9533 51.7302 16.1117 49.875 16.97V5.78125C49.8739 4.86161 49.4982 3.97994 48.8304 3.32966C48.1625 2.67937 47.257 2.31357 46.3125 2.3125H22.5625C21.618 2.31357 20.7125 2.67937 20.0446 3.32966C19.3768 3.97994 19.0011 4.86161 19 5.78125V31.2188H18.988C18.049 31.2153 17.1339 31.5069 16.3785 32.0501C15.6232 32.5932 15.0679 33.3591 14.7951 34.234L10.74 47.0662C10.7207 47.1276 10.7066 47.1904 10.6979 47.2541L8.46094 63.5938H8.3125C7.99756 63.5938 7.69551 63.7156 7.47281 63.9324C7.25011 64.1492 7.125 64.4433 7.125 64.75V70.5312C7.125 70.8379 7.25011 71.132 7.47281 71.3488C7.69551 71.5657 7.99756 71.6875 8.3125 71.6875H34.4375C34.7524 71.6875 35.0545 71.5657 35.2772 71.3488C35.4999 71.132 35.625 70.8379 35.625 70.5312V64.75C35.6249 64.5064 35.5458 64.269 35.399 64.0717C35.2521 63.8745 35.045 63.7274 34.8073 63.6516L36.5207 57.8125H38.4985L42.0313 63.8315C41.8856 63.939 41.7675 64.0778 41.6862 64.2372C41.6049 64.3965 41.5625 64.5721 41.5625 64.75ZM67.6875 69.375H43.9375V65.9062H67.6875V69.375ZM58.1875 18.5C59.3618 18.5 60.5098 18.8391 61.4862 19.4743C62.4626 20.1096 63.2236 21.0125 63.673 22.0689C64.1224 23.1252 64.24 24.2877 64.0109 25.4091C63.7818 26.5306 63.2163 27.5607 62.3859 28.3692C61.5556 29.1777 60.4976 29.7283 59.3458 29.9514C58.1941 30.1745 57.0003 30.06 55.9153 29.6224C54.8304 29.1849 53.9031 28.4439 53.2506 27.4931C52.5982 26.5424 52.25 25.4247 52.25 24.2812C52.2518 22.7485 52.8779 21.279 53.991 20.1952C55.1041 19.1114 56.6133 18.5017 58.1875 18.5ZM52.2596 18.6146C50.7315 20.1254 49.875 22.1608 49.875 24.2812C49.875 26.4017 50.7315 28.4371 52.2596 29.9479C50.9163 29.6835 49.7083 28.9747 48.8405 27.9419C47.9727 26.909 47.4986 25.6157 47.4986 24.2812C47.4986 22.9468 47.9727 21.6535 48.8405 20.6206C49.7083 19.5878 50.9163 18.879 52.2596 18.6146ZM33.25 69.375H9.5V65.9062H33.25V69.375ZM32.3543 63.5938H10.8563L13.0383 47.6544L17.0644 34.914C17.2115 34.4492 17.5309 34.0542 17.9606 33.8061C18.3902 33.5579 18.8993 33.4742 19.3887 33.5714C19.8782 33.6685 20.3131 33.9394 20.6088 34.3314C20.9044 34.7235 21.0397 35.2086 20.9883 35.6924L19.0113 49.5598C18.9825 49.7631 19.0097 49.9702 19.0901 50.16C19.1706 50.3497 19.3013 50.5152 19.4691 50.6396C19.5237 50.68 24.9375 54.7425 24.9375 58.9689C24.9375 59.2756 25.0626 59.5696 25.2853 59.7865C25.508 60.0033 25.8101 60.1251 26.125 60.1251C26.4399 60.1251 26.742 60.0033 26.9647 59.7865C27.1874 59.5696 27.3125 59.2756 27.3125 58.9689C27.3113 58.5817 27.2798 58.1952 27.2182 57.8126H34.0507L32.3543 63.5938ZM38.1128 55.5H26.5149C25.1976 52.5399 22.5975 50.1742 21.4558 49.2323L23.344 35.9932C23.3455 35.9828 23.3468 35.9724 23.348 35.9618C23.4381 35.1742 23.3013 34.3778 22.9528 33.6617C22.6043 32.9455 22.058 32.338 21.375 31.907V5.78125C21.3754 5.4747 21.5006 5.1808 21.7232 4.96404C21.9458 4.74727 22.2477 4.62534 22.5625 4.625H27.7661L28.6254 6.29838C28.7241 6.49043 28.8757 6.65194 29.0632 6.76482C29.2508 6.8777 29.467 6.93749 29.6875 6.9375H39.1875C39.408 6.93749 39.6242 6.8777 39.8118 6.76482C39.9993 6.65194 40.1509 6.49043 40.2496 6.29838L41.1089 4.625H46.3125C46.6273 4.62534 46.9292 4.74727 47.1518 4.96404C47.3744 5.1808 47.4996 5.4747 47.5 5.78125V18.6246C45.9778 20.1344 45.125 22.1656 45.125 24.2812C45.125 26.3969 45.9778 28.4281 47.5 29.9379V39.3125H46.064L40.0738 26.9993C39.7062 26.2421 39.1072 25.614 38.3588 25.2009C37.6105 24.7879 36.7493 24.6101 35.8932 24.6919C37.655 23.363 41.5625 19.7535 41.5625 13.875C41.5625 13.6753 41.5094 13.4791 41.4084 13.3053C41.3073 13.1316 41.1618 12.9862 40.986 12.8835L35.0485 9.41477C34.8639 9.30694 34.6527 9.24999 34.4375 9.24999C34.2223 9.24999 34.0111 9.30694 33.8265 9.41477L27.889 12.8835C27.7141 12.9857 27.5692 13.13 27.4682 13.3026C27.3672 13.4752 27.3136 13.6702 27.3125 13.8688C27.3107 14.1791 27.3447 21.5104 33.8289 25.2745C33.8779 25.3027 33.929 25.3275 33.9816 25.3486C33.2117 25.8474 32.6331 26.5805 32.3364 27.4334C32.0397 28.2862 32.0416 29.2108 32.3417 30.0625H27.3125C26.9976 30.0625 26.6955 30.1843 26.4728 30.4012C26.2501 30.618 26.125 30.9121 26.125 31.2188V40.4688C26.125 40.7754 26.2501 41.0695 26.4728 41.2863C26.6955 41.5032 26.9976 41.625 27.3125 41.625H37.5203L38.5593 43.9375H27.3125C26.9976 43.9375 26.6955 44.0593 26.4728 44.2762C26.2501 44.493 26.125 44.7871 26.125 45.0938V49.7188C26.125 50.0254 26.2501 50.3195 26.4728 50.5363C26.6955 50.7532 26.9976 50.875 27.3125 50.875H38.5878L38.1128 55.5ZM34.4105 22.8878C30.6535 20.3234 29.8848 16.0915 29.7277 14.5062L34.4375 11.7546L39.1682 14.5183C38.8936 19.0806 35.7513 21.8895 34.4105 22.8878ZM36.4812 39.3125H28.5V32.375H33.364L36.4812 39.3125ZM38.8253 48.5625H28.5V46.25H39.0628L38.8253 48.5625ZM40.4069 56.4035L41.5566 45.2094C41.5768 45.012 41.5445 44.8129 41.4629 44.6312L34.6406 29.4467C34.4508 29.0236 34.4395 28.5449 34.6092 28.1138C34.7788 27.6827 35.1157 27.3338 35.5471 27.1425C35.9786 26.9512 36.4701 26.9327 36.9154 27.0911C37.3607 27.2496 37.7242 27.5721 37.9274 27.9892L47.6143 47.9013C47.7491 48.1784 47.9915 48.392 48.2881 48.4952C48.5847 48.5983 48.9113 48.5825 49.1959 48.4512C49.4805 48.3199 49.6999 48.0839 49.8059 47.7951C49.9118 47.5063 49.8955 47.1884 49.7607 46.9112L47.1883 41.625H50.3279L53.5622 47.9234C53.6312 48.0604 53.7274 48.1828 53.8452 48.2834C53.963 48.3841 54.1001 48.461 54.2486 48.5098C54.397 48.5586 54.554 48.5783 54.7103 48.5678C54.8667 48.5573 55.0194 48.5167 55.1595 48.4485C55.2997 48.3802 55.4246 48.2856 55.5271 48.1701C55.6295 48.0547 55.7075 47.9206 55.7564 47.7756C55.8054 47.6307 55.8244 47.4777 55.8124 47.3255C55.8004 47.1734 55.7575 47.0251 55.6863 46.8891L52.9839 41.625H56.2661L59.5004 47.9234C59.5694 48.0604 59.6656 48.1828 59.7834 48.2834C59.9012 48.3841 60.0383 48.461 60.1868 48.5098C60.3353 48.5586 60.4922 48.5783 60.6486 48.5678C60.8049 48.5573 60.9576 48.5167 61.0978 48.4485C61.2379 48.3802 61.3629 48.2856 61.4653 48.1701C61.5677 48.0547 61.6457 47.9206 61.6947 47.7756C61.7437 47.6307 61.7627 47.4777 61.7506 47.3255C61.7386 47.1734 61.6958 47.0251 61.6246 46.8891L58.9214 41.625H60.8333C61.558 41.6271 62.265 41.8435 62.8607 42.2453C63.4564 42.6472 63.9128 43.2157 64.1695 43.8756L66.5 49.9285V63.5938H44.6265L40.4069 56.4035Z" fill="black"/>
<path d="M55.8125 26.5938C55.8125 26.9004 55.9376 27.1945 56.1603 27.4113C56.383 27.6282 56.6851 27.75 57 27.75H58.1875C58.8174 27.75 59.4215 27.5064 59.8669 27.0727C60.3123 26.639 60.5625 26.0508 60.5625 25.4375C60.5625 24.8242 60.3123 24.236 59.8669 23.8023C59.4215 23.3686 58.8174 23.125 58.1875 23.125H59.375C59.6899 23.125 59.992 23.0032 60.2147 22.7863C60.4374 22.5695 60.5625 22.2754 60.5625 21.9688C60.5625 21.6621 60.4374 21.368 60.2147 21.1512C59.992 20.9343 59.6899 20.8125 59.375 20.8125H58.1875C57.5576 20.8125 56.9535 21.0561 56.5081 21.4898C56.0627 21.9235 55.8125 22.5117 55.8125 23.125C55.8125 23.7383 56.0627 24.3265 56.5081 24.7602C56.9535 25.1939 57.5576 25.4375 58.1875 25.4375H57C56.6851 25.4375 56.383 25.5593 56.1603 25.7762C55.9376 25.993 55.8125 26.2871 55.8125 26.5938Z" fill="black"/>
</svg>
